<?xml version="1.0" encoding="utf-8"?>
<!-- Generator: Adobe Illustrator 24.2.1, SVG Export Plug-In . SVG Version: 6.00 Build 0)  -->
<svg version="1.1" id="Layer_1" xmlns="http://www.w3.org/2000/svg" xmlns:xlink="http://www.w3.org/1999/xlink" x="0px" y="0px"
	 viewBox="0 0 500 500" style="enable-background:new 0 0 500 500;" xml:space="preserve">
<style type="text/css">
	.st0{fill:#F04936;}
</style>
<g>
	<g>
		<g>
			<path class="st0" d="M103.74,77.93c-3.26-1.85-7.37-1.78-10.77-0.41c-1.71,0.67-3.3,1.61-4.71,2.77
				c-1.43,1.17-2.59,2.61-3.56,4.08c-1.97,2.99-3.15,6.31-4.03,9.59c-0.87,3.3-1.49,6.55-2.13,9.83
				c-1.24,6.55-2.22,13.16-2.93,19.79c-0.7,6.62-1.23,13.31-1.01,20.06c0.23,6.73,1.27,13.56,3.72,19.97
				c2.43,6.4,6.14,12.24,10.61,17.35c8.99,10.25,21.03,17.4,33.86,21.53c6.45,2.06,13.1,3.29,19.8,3.9
				c6.7,0.62,13.42,0.65,20.11,0.24c13.38-0.84,26.52-3.37,39.47-6.37c12.94-3.04,25.88-6.86,37.87-13.03
				c1.49-0.77,2.98-1.57,4.43-2.42c1.45-0.84,2.92-1.7,4.33-2.71c2.8-2,5.46-4.31,7.46-7.56c0.96-1.58,1.65-3.34,1.91-5.17
				c0.26-1.83,0.09-3.72-0.49-5.47c-0.58-1.76-1.54-3.38-2.65-4.86c-1.11-1.47-2.27-2.68-3.49-3.89
				c-4.84-4.83-10.56-8.63-16.51-11.77c-5.98-3.13-12.24-5.58-18.56-7.73c-12.68-4.3-25.87-7.02-39.2-8.18
				c-6.68-0.54-13.34-0.77-20.08-0.46c-3.36,0.16-6.73,0.52-10.06,1.09c-3.33,0.58-6.66,1.34-9.88,2.48
				c-3.22,1.12-6.37,2.55-9.3,4.38c-2.94,1.82-5.6,4.14-7.84,6.83l-0.84,1.01c-0.28,0.34-0.5,0.72-0.75,1.08
				c-0.47,0.74-1.01,1.43-1.42,2.2c-0.87,1.52-1.6,3.1-2.21,4.72c-1.22,3.24-1.96,6.6-2.49,9.94c-0.53,3.35-0.82,6.67-1.1,10
				c-0.28,3.33-0.46,6.66-0.56,10.01c-0.2,6.68-0.03,13.39,0.69,20.07c1.41,13.31,5.03,26.64,11.97,38.3
				c0.81,1.49,1.81,2.86,2.71,4.29c1.01,1.36,1.94,2.77,3.03,4.07c2.06,2.68,4.38,5.15,6.75,7.55c4.82,4.73,10.13,8.93,15.8,12.54
				c5.65,3.65,11.67,6.7,17.85,9.31c6.2,2.56,12.57,4.69,19.03,6.4c12.98,3.47,26.27,5.44,39.52,6.94
				c6.63,0.76,13.28,1.36,19.93,1.89c6.66,0.48,13.32,0.88,19.99,1.14c13.34,0.5,26.7,0.55,40.04,0.06l8.94-0.39l0.6,11.55
				c7.54-4.79,14.89-9.72,22.04-14.79c-7.97-3.66-15.78-7.49-23.4-11.48l0.6,11.55l-8.88,0.38c-13.26,0.49-26.54,0.44-39.8-0.06
				c-6.63-0.25-13.25-0.65-19.87-1.13c-6.61-0.53-13.22-1.12-19.82-1.87c-13.18-1.49-26.31-3.44-39.06-6.85
				c-6.35-1.67-12.58-3.77-18.63-6.26c-6.02-2.55-11.88-5.51-17.36-9.06c-10.99-7.01-20.68-16.21-27.28-27.4
				c-6.65-11.17-10.17-24.03-11.54-37.01c-0.7-6.51-0.86-13.08-0.67-19.64c0.11-3.28,0.28-6.56,0.55-9.84
				c0.27-3.28,0.57-6.56,1.07-9.76c0.51-3.2,1.21-6.35,2.33-9.31c0.56-1.48,1.22-2.91,2-4.27c0.37-0.69,0.86-1.31,1.28-1.97
				c0.22-0.32,0.42-0.66,0.67-0.96l0.75-0.9c2-2.4,4.39-4.5,7.09-6.17c2.69-1.68,5.61-3.01,8.64-4.06c3.03-1.07,6.19-1.79,9.38-2.35
				c3.19-0.56,6.43-0.9,9.69-1.05c6.51-0.3,13.12-0.09,19.64,0.45c13.08,1.13,26.03,3.81,38.46,8.02
				c6.21,2.12,12.34,4.52,18.11,7.54c5.75,3.03,11.19,6.66,15.75,11.21c1.13,1.13,2.27,2.32,3.15,3.5c0.88,1.16,1.64,2.42,2.11,3.81
				c0.48,1.38,0.61,2.87,0.4,4.31c-0.21,1.44-0.77,2.82-1.53,4.06c-1.48,2.42-3.88,4.62-6.46,6.44c-1.29,0.92-2.68,1.73-4.09,2.56
				c-1.41,0.82-2.84,1.6-4.29,2.35c-11.63,5.98-24.32,9.75-37.14,12.76c-12.85,2.98-25.84,5.47-38.95,6.29
				c-6.54,0.4-13.11,0.37-19.61-0.23c-6.5-0.6-12.96-1.79-19.14-3.77c-12.34-3.96-23.92-10.86-32.44-20.6
				c-4.25-4.85-7.75-10.37-10.03-16.38c-2.3-6-3.29-12.46-3.52-18.95c-0.22-6.5,0.3-13.06,0.99-19.62c0.7-6.55,1.67-13.07,2.9-19.54
				c0.63-3.23,1.25-6.49,2.08-9.6c0.83-3.11,1.92-6.11,3.61-8.67c0.85-1.28,1.8-2.46,2.94-3.39c1.14-0.95,2.44-1.72,3.82-2.25
				c1.38-0.54,2.81-0.84,4.27-0.79c1.45,0.03,2.91,0.41,4.17,1.14L103.74,77.93z"/>
		</g>
	</g>
</g>
</svg>
