<?xml version="1.0" encoding="utf-8"?>
<!-- Generator: Adobe Illustrator 24.2.1, SVG Export Plug-In . SVG Version: 6.00 Build 0)  -->
<svg version="1.1" id="Layer_1" xmlns="http://www.w3.org/2000/svg" xmlns:xlink="http://www.w3.org/1999/xlink" x="0px" y="0px"
	 viewBox="0 0 500 500" style="enable-background:new 0 0 500 500;" xml:space="preserve">
<g>
	<g>
		<g>
			<g>
				<g>
					<path d="M465.84,340.48c0.94,1.54,0.94,0.77,1.15,0.95C465.3,338.95,465.79,340.6,465.84,340.48z"/>
					<path d="M450.25,315.12l0.39,0.39c-0.79-1.24-1.58-2.49-2.34-3.75C448.93,312.9,449.59,314.01,450.25,315.12z"/>
					<path d="M438.88,289.67c0.27,2.73,3.87,9.34,5.72,13.95l0.19,0.82l1.46,1.79C443.6,300.81,440.22,293.72,438.88,289.67z"/>
					<path d="M435.29,275.21c0.03,0.95-1.25-2.95,1.02,3.29c-0.08-0.33-0.1-0.42-0.14-0.61
						C435.97,277.33,435.72,276.54,435.29,275.21z"/>
					<path d="M436.17,277.89C437.16,280.64,435.76,276.01,436.17,277.89L436.17,277.89z"/>
					<path d="M431.92,265.07c0.45,1.21,0.89,2.42,1.35,3.62c-0.1-0.81-1.03-4.12-0.55-2.93
						C431.46,262.01,431.53,262.83,431.92,265.07z"/>
					<path d="M430.38,261.7l0.66,1.9C431.01,263.24,430.88,262.72,430.38,261.7z"/>
					<path d="M432.48,267.6l-1.43-4.01c0.05,0.57-0.15,0.69,0.64,1.85C431.38,265.17,431.82,265.91,432.48,267.6z"/>
					<path d="M433.09,269.92c0.5,2.11,1.25,4.81-0.15,1.19c1.14,3.52,1.83,4.94,1.85,4.65
						C434.82,275.46,434.23,273.43,433.09,269.92z"/>
					<path d="M437.68,288.61l0.86,2.79l1.17,2.24C439.09,292.53,437.82,288.36,437.68,288.61z"/>
					<path d="M425.67,241.71c-0.21-0.19-0.03,1.37-0.14,1.7l0.95,2.72C426.18,244.68,425.51,241.96,425.67,241.71z"/>
					<path d="M425.53,243.41l-1.43-4.07C425.14,243.05,425.43,243.69,425.53,243.41z"/>
					<path d="M429.43,261.25c0.81,2.21,1.68,4.39,2.52,6.59c-0.98-2.62-1.96-5.25-2.9-7.89L429.43,261.25z"/>
					<path d="M420.95,225.87c0.37,0.74,0.72,1.49,1.08,2.24c-0.59-1.34-1.22-2.68-1.85-4.01L420.95,225.87z"/>
					<path d="M417.27,215.47c0.93,1.61-0.44-2.52,0.42-0.77c-0.57-1.4-1.14-2.68-1.7-3.86c-0.6-1.17-1.18-2.26-1.73-3.28
						c0.53,1.11,1.05,2.28,1.56,3.57C416.3,212.42,416.78,213.85,417.27,215.47z"/>
					<path d="M412.39,204.13c0.59,1.08,1.21,2.21,1.87,3.43C413.71,206.37,413.09,205.23,412.39,204.13z"/>
					<path d="M422.1,232.26c0-0.35,0.03-1.03-0.59-3.38l0.1,1.75C421.76,231.13,421.93,231.69,422.1,232.26z"/>
					<path d="M421.61,230.69l0-0.06c-0.54-1.77-0.91-2.99-1.07-3.52C420.67,227.57,420.99,228.64,421.61,230.69z"/>
					<path d="M422.22,232.67c-0.04-0.15-0.08-0.26-0.12-0.41C422.11,232.43,422.12,232.53,422.22,232.67z"/>
					<path d="M426.74,250.33c-0.9-2.37-2.58-7.37-1.55-2.36C425.96,249.63,425.38,246.76,426.74,250.33z"/>
					<path d="M422.31,234.85l1.19,4.42c0.08-0.12,0.01-0.96,0.47,0.22C423.43,237.94,422.88,236.39,422.31,234.85z"/>
					<polygon points="421.54,232.74 422.31,234.85 421.86,233.21 					"/>
					<path d="M415.16,211.59c-0.94-1.78-1.77-3.8-2.81-6.04c0.53,1.22,0.98,2.49,1.49,3.72c0.5,1.24,1.01,2.48,1.46,3.69
						C415.55,213.25,416.19,214.23,415.16,211.59z"/>
					<path d="M418.46,220.84c-0.05-0.13-0.12-0.29-0.17-0.41C418.34,220.7,418.41,220.91,418.46,220.84z"/>
					<path d="M400.44,184.27c0.06,0.13,0.1,0.24,0.16,0.37c0.04,0.01,0.07,0.01,0.11,0.03L400.44,184.27z"/>
					<path d="M415.38,213.4c0.63,1.88,1.18,2.94,1.67,3.97c-0.55-1.38-1.13-2.84-1.75-4.41
						C415.18,212.83,415.13,212.81,415.38,213.4z"/>
					<path d="M409.23,198.07c0.39,0.97,0.86,2.06,1.36,3.2C410.25,200.3,409.5,198.35,409.23,198.07z"/>
					<path d="M418.17,219.76c0.04,0.09,0.07,0.17,0.12,0.27C418.16,219.39,418.15,219.48,418.17,219.76z"/>
					<path d="M418.17,219.76c-0.4-0.94-0.77-1.66-1.13-2.39c0.44,1.13,0.85,2.16,1.24,3.06
						C418.23,220.19,418.19,219.94,418.17,219.76z"/>
					<path d="M393.89,179.99c0.26,0.01,1.25,0.98,2.48,2.43c1.16,1.49,2.53,3.48,3.62,5.42c1.29,1.77,1.83,1.89,1.87,1.09
						c0.04-0.8-0.42-2.52-1.26-4.31c-0.23-0.01-0.33,0.05-3.19-3.52c0.81,1.4,5.38,8.59,2.91,5.62c-3.62-4.81-2.67-4.14-4.31-6.58
						c0.57,1.13-0.75-0.27-2.17-1.77c-0.7-0.76-1.47-1.5-2.04-1.96c-0.57-0.47-0.93-0.66-0.86-0.3c0.59,0.64,1.21,1.26,1.78,1.92
						l1.7,1.99C394.39,180.17,393.08,178.78,393.89,179.99z"/>
					<path d="M405.3,192.01l0.97,1.62c-0.96-1.93-1.69-3.29-2.93-5.88c-0.47-0.64-0.84-1.15-1.14-1.56
						c-0.33-0.39-0.58-0.69-0.78-0.9c-0.4-0.44-0.58-0.57-0.7-0.63c0.44,0.64,0.89,1.27,1.31,1.92l1.23,1.98
						c0.8,1.33,1.66,2.62,2.41,3.98L405.3,192.01z"/>
					<path d="M410.23,201.13c-1.06-1.13-3.26-5.06-2.42-2.39c2.52,4.88,2.03,3.29,3.6,6.19c-3.82-8.03,1.3,2.22-1.19-3.72
						c0.82,1.55,1.49,2.98,2.13,4.33c-0.61-1.49-1.2-2.93-1.76-4.28c0.03,0.08,0.05,0.13,0.07,0.2l0.02,0.04l-0.01,0
						c0.11,0.37,0.14,0.5-0.02,0.09c-0.02-0.02-0.06-0.12-0.09-0.17C410.48,201.39,410.36,201.27,410.23,201.13
						c-1.09-2.35-0.08-0.41,0.33,0.29c0.03,0.02,0.08,0.07,0.1,0.07c0-0.01-0.01-0.02-0.01-0.03c-1.41-2.64-2.81-5.28-4.39-7.82
						c0.44,0.84,0.95,1.78,1.62,2.96C408.51,197.81,409.26,199.27,410.23,201.13z"/>
					<path d="M423.03,243.69c-0.04-0.27,0-0.27,0.02-0.3C422.85,242.86,422.75,242.66,423.03,243.69z"/>
					<path d="M422.29,240.13c0.23,0.6,0.55,1.06,1.08,3.08c0.36,1.77-0.2,0.05-0.31,0.18c0.45,1.18,1.48,4.14,0.62,0.3l-0.22-0.58
						c-0.82-3.45-1.59-7.98-1.36-7.4C422.01,236.8,422.01,237.76,422.29,240.13z"/>
					<path d="M416.93,220.24l-1.34-3.44l-1.42-3.4l1,3.63l0.14-0.26C416.64,220.75,416.59,219.81,416.93,220.24z"/>
					<path d="M400.13,183.44l0.94,0.55c-1.01-1.06-1.99-2.13-3.02-3.16C398.77,181.68,399.43,182.57,400.13,183.44z"/>
					<polygon points="394.23,175.73 394.77,175.75 392.92,173.95 					"/>
					<path d="M87.39,298.91c0.59,0.39,1.18,0.76,1.79,1.11C88.34,299.5,87.79,299.16,87.39,298.91z"/>
					<path d="M75.62,289.23l-0.41-0.11C75.8,289.52,76.07,289.66,75.62,289.23z"/>
					<path d="M182.05,94.52c-3.17,0-6.73-0.14-6.3,0.26l1.01,0.31C178.94,94.74,180.62,94.6,182.05,94.52z"/>
					<path d="M53.44,172.07c0.13-0.27,0.27-0.55,0.4-0.83c0.09-0.77,0.18-1.5,0.25-2.14C53.9,169.99,53.68,171,53.44,172.07z"/>
					<path d="M54.54,174.69c-0.49,1.28-0.91,2.58-1.37,3.87C53.51,177.7,53.92,176.44,54.54,174.69z"/>
					<path d="M166.24,324.68l2.52-0.2C164.89,324.11,166.57,324.5,166.24,324.68z"/>
					<path d="M315.31,117.76c-2.34-1.41-4.27-2.4-5.97-3.28C312.19,116.16,314.39,117.67,315.31,117.76z"/>
					<path d="M79.73,298.91c1.11,0.77,1.61,1.05,1.64,0.95C80.23,299.07,79.57,298.65,79.73,298.91z"/>
					<path d="M302.22,111.11c0.42,0.23,0.84,0.46,1.27,0.69c1.83,0.79,3.68,1.58,5.86,2.68
						C307.25,113.25,304.77,111.96,302.22,111.11z"/>
					<path d="M395.73,165.12c0.09-0.2,0.2-0.45,0.28-0.64C395.98,164.4,395.87,164.69,395.73,165.12z"/>
					<path d="M419.41,78.54c-0.06,0.89-0.2,2.34-0.32,3.7C419.18,81.58,419.29,80.47,419.41,78.54z"/>
					<path d="M366.24,148.79C367.89,150,366.53,148.94,366.24,148.79L366.24,148.79z"/>
					<path d="M372.87,156.36c-0.36-0.24-0.65-0.41-0.75-0.37C372.31,156.02,372.57,156.15,372.87,156.36z"/>
					<path d="M282.5,105.89c-0.06-0.02-0.1-0.04-0.16-0.06C282.87,106.11,282.78,106.06,282.5,105.89z"/>
					<path d="M368.54,150.84c-0.57-0.52-1.22-1.12-1.98-1.72C366.89,149.4,367.49,149.92,368.54,150.84z"/>
					<path d="M368.35,150.42c0.54,0.46,0.96,0.81,1.37,1.15C369.96,151.68,369.81,151.5,368.35,150.42z"/>
					<path d="M363.95,147.09c0.94,0.7,1.8,1.37,2.61,2.03c-0.3-0.27-0.42-0.39-0.33-0.33C365.76,148.43,365.08,147.92,363.95,147.09
						z"/>
					<path d="M302.58,297.56c0.12-0.07,0.25-0.14,0.38-0.21C304.52,296.05,303.8,296.58,302.58,297.56z"/>
					<path d="M130.94,107.31c0.09-0.03,0.14-0.05,0.22-0.07c-0.09,0.02-0.21,0.04-0.29,0.05L130.94,107.31z"/>
					<path d="M124.08,109.44c2.81-1.3,4.49-1.77,6.78-2.16c-0.87-0.21-1.75-0.46-2.62-0.65L124.08,109.44z"/>
					<path d="M120.06,315.25c-1.55-0.64-3.05-1.39-4.57-2.08c2.92,0.8,5.43,1.49,6.64,1.82c1.22,0.32,1.16,0.21-0.96-0.8
						c-0.55,0.53-5.17-0.99-9.64-2.84c-4.48-1.85-8.83-3.96-9.43-3.55l-2.79-1.78c0.83,0.45,1,0.45,1.82,0.89
						c-1.35-0.87-2.29-1.42-3.08-1.8c-0.79-0.38-1.42-0.58-2.12-0.8c-0.69-0.22-1.42-0.49-2.43-0.97c-0.5-0.24-1.07-0.54-1.73-0.91
						c-0.65-0.39-1.38-0.88-2.23-1.48c-1.18-0.83-2.13-1.61-2.58-2.04c-0.45-0.43-0.41-0.51,0.43,0l-2.69-1.74l-2.63-1.84
						c-1.45-1.18-0.94-1.08,0.5,0.09c-2.59-1.98-5.04-4.12-7.44-6.32l0.08,0.02c-1.13-0.83-3.65-2.8-4.76-3.88
						c-1.54-1.97,0.95,0.82,0.64,0.24c-1.3-1.26-2.62-2.5-3.84-3.84c-1.14-1.92,1.95,1.34,4.48,4.07c-1.2-2.33-2.05-3.05-3.33-4.38
						c-1.28-1.31-3.21-3.11-5.93-7.81l1.51,2.03c0.5,0.68,1.06,1.31,1.59,1.97c-1.37-3.03-3.87-6.09-6.2-11.26
						c0.11,0.32,0.44,1.14,0.83,2.11c0.42,0.95,0.93,2.04,1.32,2.96c0.37,0.92,0.68,1.63,0.65,1.83c-0.02,0.19-0.43-0.08-1.26-1.29
						c-0.39-0.73-0.86-1.56-1.47-2.52c-0.59-0.98-1.26-2.12-2.15-3.43c0.2-0.12-0.09-0.85-0.6-1.99c-0.53-1.13-1.33-2.66-2.06-4.43
						l0.69-0.01c-0.44-0.93-0.8-1.59-1.07-2.12c-0.26-0.53-0.46-0.9-0.65-1.23c-0.38-0.65-0.71-1.09-1.26-2.19
						c-0.68-2.22-0.92-3.6-1.03-4.56c-0.05-0.97,0.05-1.53,0.12-2.1c-0.83-3.58-0.72-2.31-0.68-1.18c0.02,0.56,0.03,1.09-0.11,0.94
						c-0.07-0.07-0.18-0.31-0.33-0.8c-0.17-0.49-0.37-1.22-0.59-2.3c-0.51-3.05-0.9-5.65-1.31-8.41c-0.39-2.76-0.82-5.68-1.1-9.41
						c0.1-4.36,0.41,0.75,0.55-0.82c-0.22-1.28-0.38-2.57-0.54-3.86c0.02-0.95,0.17-0.64,0.25-0.48c-0.16-3.26-0.67-0.28-0.64-5.43
						c-0.17-0.36-0.14-1.19,0-2.35c0.15-1.15,0.34-2.62,0.65-4.24c0.27-1.62,0.57-3.38,0.87-5.14c0.25-1.76,0.48-3.52,0.53-5.13
						c0.42-1.53,0.27,0.81,0.59,0.38c0.43-4.36,0.7-6.22,0.92-7.9c0.2-1.68,0.38-3.16,0.81-6.76c0.59-1.97,1.23-3.92,1.88-5.86
						c-1.57,4.25-0.78-1.49,0.28-6.49c-0.67,1.48-1.28,2.74-1.61,3.61c0.62-2.64,1.31-5.28,2.08-7.89c0.43-0.9,0.35-0.05,0.18,1.3
						c0.12-0.54,0.24-1.06,0.34-1.46c1.18-2.67,1.03-1.11,0.69,0.95c-0.43,0.9-0.86,1.79-1.28,2.65c-0.23,2.03-0.33,3.94,0.14,3.64
						c0.08-0.52,0.3-1.51,0.59-2.58c-0.05,0.53-0.05,0.87,0.08,0.66c0.14-0.24,0.25-1.08,0.5-2.39c0.42-0.51,0.82-1.01,1.24-1.51
						l-0.12-0.51c1.26-3.27,2.68-6.45,4.22-9.56c1.2-3.54,2.36-6.87,4.13-10.55c1.78-3.66,4.08-7.77,8.08-12.29
						c-1.57,2.6,0.22,1.04,0.58,1.58c-1.3,1.01-2.82,2.75-4.26,4.98c-1.45,2.23-2.97,4.83-4.54,7.46c0.83-1.37,1.23-1.85,1.38-1.9
						c0.15-0.05,0.03,0.32-0.14,0.69c1.72-3.19,3.62-6.3,5.81-9.21c0.23,0.51,1.81-1.5,3.83-3.5c-0.53,0.23-0.5-0.06-0.1-0.69
						c0.44-0.59,1.28-1.48,2.29-2.5c0.51-0.51,1.05-1.05,1.6-1.61c0.28-0.28,0.56-0.55,0.84-0.83c0.3-0.25,0.61-0.51,0.91-0.76
						c1.2-1.01,2.33-1.97,3.15-2.73c0.21,0.05,0.16,0.31-0.47,0.97c-0.32,0.33-0.78,0.77-1.43,1.33c-0.33,0.28-0.7,0.59-1.12,0.94
						c-0.43,0.34-0.9,0.72-1.38,1.2c0.58-0.47,1.16-0.84,1.66-1.22c0.5-0.38,0.95-0.75,1.35-1.12c0.81-0.74,1.46-1.46,2.11-2.19
						c1.33-1.42,2.79-2.72,5.39-4.15c-1.09,0.76-1.71,1.13-2.05,1.57c0.6-0.5,1.45-1.14,2.37-1.79c0.95-0.61,1.99-1.18,2.89-1.68
						c1.82-1,3.13-1.62,2.43-1.04l-1.14,0.68c1.88-1.16,4.42-2.31,7.05-3.66c0.33-0.17,0.66-0.33,1-0.5l1.04-0.45
						c0.69-0.3,1.39-0.61,2.08-0.91c1.4-0.59,2.74-1.28,4.11-1.78c5.37-2.21,9.99-3.82,10.5-4.43c0.12,0.08-0.81,1.33-1.27,1.66
						c1.19-0.61,2.37-1.28,3.58-1.85l3.65-1.74c2.43-1.2,4.94-2.21,7.44-3.31c-1.2,1.03,4.41,1.5-2.68,3.59
						c2.09-0.38,4.64-0.91,8.98-2.02c-1.43,0.19-3.76-0.31-1.83-0.77c5.49-0.3,3.79-0.35,10.51-0.85c-2.16,0.25,0.01-1.37,3.42-1.85
						c-0.5,0.25,0.46,1.07-0.76,1.39c2.76-0.81,5.51-1.65,8.3-2.4c-2.09,0.5-0.24,1,1.7,1.04c-0.92-0.12,7.34-0.98,9.59-1.37
						l-3.64,0.21c9.63-1.06,9.3-2.8,18.86-3.84c-1.13,0.36-2.69,1.74,2.17,1.34c2.15-0.79,9.57-3.84,18.11-4.76l1.66,0.24
						c2.18-0.23,4.36-0.46,6.55-0.63c-2.04,0.45-5.88,1.3-9.98,2.21c-4.08,0.92-8.41,1.9-11.46,2.59c3.62-0.07,1.04,0.27,6.42-0.21
						c1.92,0.16-2.89,0.7-4.47,0.88c4.18-0.31,8.36-0.59,12.53-0.73c-0.3-0.33,2.09-0.63,4.49-0.86c2.4-0.25,4.82-0.41,4.57-0.7
						c-4.54,0.29-9.07,0.77-13.59,1.3c-0.61-0.61,7.77-2.55,16.74-2.42c2.27,0.26-1.7,1.2-1.5,1.43c1.15-0.26,8.44-0.41,9.25-0.14
						c-1.26,0.06-2.52,0.15-3.77,0.25c4.91,0.37,8.11-0.66,13.97,0.56c2.04,0.25,5.94,1.61,6.35,1.24c-3.18-1.17-3.59-3.62-1.26-3.9
						c0.18,0.04,0.94,0.19,2.02,0.4c1.07,0.26,2.46,0.59,3.89,0.93c1.44,0.33,2.9,0.74,4.15,1.12c1.25,0.37,2.29,0.7,2.85,0.91
						c3.2,1.26-5.3,0.4-2.56,1.47c0.16-0.16,2.03-0.01,2.81,0.07c2.07,0.64-0.99,0.35,3.58,1.34c0.94-0.56,9.21,2.49,2.3-0.05
						c4.48,1.03,4.69,1.36,9.85,2.92c-0.76-0.45,0.52-0.49,2.54-0.19c2,0.33,4.8,0.87,7,1.61c-0.32,0.07,0.59,0.64,1.02,0.91
						c2.23,0.81,4.16,1.61,5.96,2.37c1.8,0.74,3.44,1.47,5.06,2.21c1.62,0.73,3.23,1.45,4.91,2.26c1.69,0.79,3.47,1.63,5.47,2.57
						c0.67,0.5,4.42,2.5,2.66,1.99c1.19,0.44,2.33,0.76,4.78,1.95c4.44,2.87-5.47-2.61-2.19-0.19c0.49-0.22,6.53,2.65,10.06,4.27
						c-0.75-1.13-7.89-4.25-11.48-5.72c0.34-0.76,6.85,1.37,15.18,5.45c6.56,3.36,2.53,2.02,3.71,2.52c6,3.42,8.71,4.61,11.15,5.7
						c2.44,1.08,4.61,2.09,9.31,5.42c3.55,2.93-0.41,1.01,0.24,1.89c-5.14-3.06-7.61-5.16-11.12-7.21c1.39,0.93,2.79,1.83,4.16,2.78
						c-1.72-0.84-5.22-2.76-7.03-3.98c1.53,1.16,6.54,4.12,12.18,7.7c5.65,3.56,11.81,7.89,15.94,11.23
						c1.61,0.99,4.33,2.81,3.23,1.71l-2.73-1.97c-2.22-2.22,5.43,3.35,2.14,0.61c3.81,2.47,8.08,5.33,12.72,9.76l0.47,1.27
						c0.01-0.11-0.69-0.9-1.6-1.76c-0.92-0.85-2.03-1.8-2.77-2.31c2.24,1.51,6.8,7.07,9.37,8.6l-1.44-1.73l-1.5-1.68
						c1.82,1.4,3.75,3.09,5.81,4.86c1.03,0.88,2,1.89,2.99,2.88c0.98,1.01,1.99,2.03,2.86,3.17c-1.24-2.39-0.92-0.94-3.15-4.42
						c0.86,1.61-1.56-1.15-4-3.5c-2.37-2.43-4.71-4.49-2.94-2.25c-1.24-1.71-2.51-2.99-3.91-4.38c-1.44-1.33-3-2.77-4.86-4.79
						c0,0.26,1.25,1.51-2.42-1.57c-0.21-0.09-0.65-0.35-0.93-0.52c-0.11-0.1-0.15-0.13-0.24-0.21c0.07,0.07,0.12,0.12,0.19,0.18
						c-0.18-0.11-0.2-0.11,0.07,0.07c0.83,0.78,1.49,1.44,1.71,1.77c-2.11-1.17-8.1-5.81-10.35-7.07c-2.24-1.72,1.1,0.5-0.03-0.57
						l-3.32-1.93c-0.04-0.6-5.8-4.84-0.12-1.32l-4.96-3.39c-1.41-1.07-3.13-2.28-4.82-3.41c-1.7-1.11-3.39-2.11-4.71-2.82
						c-2.36-1.57-6.39-3.23-4.09-2.28c-2.73-1.54-5.51-2.99-8.26-4.46l-0.02-0.14c-8.05-4.58-17.07-8.45-26.34-13.66
						c-2.89-1.19-5.88-2.42-10.66-4.54l-0.79-0.76c-1.9-0.67-4.65-1.91-7.2-2.91c-2.55-1-4.84-1.88-5.74-1.94
						c-0.95-0.59-2.57-1.31-4.6-2.04c-2.05-0.68-4.45-1.49-7.01-2.13c-1.27-0.33-2.57-0.66-3.84-0.99
						c-1.28-0.31-2.56-0.57-3.78-0.85c-2.44-0.58-4.69-0.98-6.43-1.38l-0.36,0.44c-1.2-0.26-2.39-0.48-3.6-0.65
						c-1.21-0.18-2.43-0.36-3.69-0.54c-1.26-0.17-2.57-0.27-3.93-0.41c-1.37-0.13-2.79-0.28-4.31-0.35l0.33,0.48
						c-5.21-0.16-13.36-1.29-21.61-1.05c0.56-0.2,2.65-0.17,4.13-0.06c-4.93-0.51-10.13-0.15-15.17,0.39
						c-5.04,0.54-9.93,1.23-14.39,1.31c-2.18,0.39-3.78,0.5-5.33,0.57c0.2-0.02,0.39-0.05,0.54-0.08c-0.23,0.02-0.56,0.06-0.9,0.1
						c-0.98,0.03-1.99,0.05-3.08,0.11c0.93,0,1.82-0.01,2.59-0.06c-1.69,0.2-4.25,0.56-6.75,0.97l-1.13-0.35
						c-0.2,0.03-0.37,0.05-0.58,0.08c-2.49,0.13-1.95,0.47-0.59,0.67c-1.25,0.23-2.4,0.48-3.28,0.7c-2.1-0.52-6.55,1.11-9.39,0.65
						c-0.82,0.32-3.96,0.83-7.05,1.43c-3.08,0.62-6.11,1.28-6.71,1.82c-0.1-0.09-0.85-0.02,0.5-0.26c-2.8,0.4-5.6,0.78-8.04,1.5
						l-1.29-0.36c-1.96,0.69-3.93,1.34-5.88,2.07c-3.73,0.5-5.31,0.64-1.78-0.67c-2.16,0.68-3.68,1.16-4.85,1.52
						c-1.17,0.38-2,0.65-2.8,0.91c-1.58,0.52-3.03,0.89-6.57,2.43l0.24-0.49c-1.3,0.43-2.97,1.07-4.5,1.69
						c-1.52,0.66-2.91,1.23-3.75,1.36c-0.75,0.19-1.77,0.45-2.98,0.89c-1.2,0.45-2.61,1.02-4.18,1.66
						c-0.78,0.34-1.63,0.63-2.46,1.06c-0.84,0.41-1.71,0.84-2.61,1.28c-0.9,0.45-1.83,0.91-2.78,1.38
						c-0.94,0.49-1.87,1.07-2.83,1.62c-0.96,0.56-1.93,1.13-2.92,1.7c-0.99,0.56-1.91,1.27-2.88,1.9c-0.96,0.65-1.92,1.31-2.89,1.96
						c-0.98,0.64-1.84,1.43-2.77,2.13c-0.91,0.72-1.82,1.43-2.71,2.14c-0.91,0.69-1.68,1.52-2.52,2.24
						c-1.62,1.51-3.28,2.87-4.6,4.38c1.45-0.77,0.13,0.53-1.51,2.18c-1.7,1.6-3.5,3.76-3.34,4.28c-0.78,0.58-2.17,2.35-0.88,0.06
						c-4.46,6.86-6.93,10.26-8.62,15.68c-0.63,0.74,0.35-1.76-0.14-1.07c-0.21,0.63-0.85,2.46-1.33,3.18
						c-0.48,0.7,0.25-1.19,0.69-2.42c-1.71,3.82-2.27,6.07-2.45,7.41c-0.18,1.35,0.11,1.83,0.38,2.24c-1.75,3.8-2.27,5.84-2.62,8.86
						c-0.62,1.32-1.56,3.58-0.25-1.36c-0.44,1.37-1.7,5.58-2.63,9.54c-0.94,3.95-1.57,7.64-1.29,7.84
						c-0.36,0.84-0.77,3.93-0.84,4.69c-0.55,3.17-0.85,4.89-1.08,6.61c-0.24,1.72-0.48,3.43-0.75,6.58l0.28-1.73
						c0.52,2.56-0.39,5.23-0.5,10.34l-0.07-0.15c-0.47,5.83-0.31,7.11-0.23,8.35c0.1,1.25,0.08,2.46,0.27,8.26l0.41-0.67
						c0.29,0.24,0.46,1,0.57,2.11c0.06,0.55,0.1,1.19,0.14,1.9c0.06,0.7,0.12,1.47,0.19,2.28c0.21,3.26,0.77,7.22,1.81,10.43
						l-0.32-2.42c0.31,0.87,0.52,1.94,0.72,3.12c0.23,1.17,0.42,2.45,0.6,3.75c0.45,2.56,0.87,5.2,1.59,6.94
						c0.25,0.78-0.66-1.13-1.12-2.17c1.59,4.67,1.91,4.89,2.14,4.79c0.23-0.1,0.41-0.52,2.07,2.71c0.14,0.68-0.24,0.39-0.39,0.48
						c-0.16,0.1-0.1,0.58,1.08,2.75c0.25,0.56,0.82,1.63,1.74,2.9c0.89,1.29,2,2.86,3.28,4.45c1.22,1.64,2.67,3.28,3.95,4.91
						c1.36,1.57,2.57,3.15,3.59,4.47c-0.41-0.62-0.79-1.26-0.77-1.44c0.01-0.18,0.39,0.13,1.61,1.29c0.89,0.92,1.85,2.1,2.96,3.28
						c1.08,1.2,2.23,2.49,3.46,3.69c0.61,0.6,1.2,1.22,1.81,1.78c0.62,0.55,1.23,1.09,1.83,1.59c1.18,1.01,2.37,1.81,3.41,2.36
						c0.47,0.46,0.62,0.67,0.61,0.73c0.8,0.58,1.88,1.29,3.06,2.08c1.17,0.81,2.48,1.63,3.76,2.4c1.27,0.8,2.53,1.5,3.62,2.06
						c1.08,0.57,1.97,1.02,2.54,1.2c1.14,1.63,6.59,4.44,11.81,6.51c5.2,2.14,10.12,3.62,9.82,4.33c1.88,0.71,3.8,1.29,5.7,1.94
						c1.92,0.57,3.83,1.19,5.76,1.71l-0.35,0.06c7.38,2.18,10.13,2.34,12.83,2.57c1.71,0.47,0.42,0.34,0.26,0.39
						c5.44,1.33,8.48,1.86,11.3,2.27c2.83,0.37,5.45,0.57,10.14,0.77l0.91,0.61c1.27,0.04,5.27,0.62,10.33,1.26
						c2.54,0.25,5.34,0.53,8.19,0.72c2.86,0.12,5.77,0.22,8.51,0.14c-0.11,0.05-0.34,0.17-1.21,0.2c3.09-0.1,6.48-0.03,9.9,0
						c3.42-0.02,6.88,0.1,10.1-0.04c1.61-0.06,3.15-0.11,4.6-0.16c1.45-0.08,2.8-0.24,4.01-0.38c2.43-0.32,4.34-0.66,5.4-1.28
						c2.68-0.51,5.35-0.95,8.01-1.51c-10.44,1.27,1.44-0.96-2.88-0.69c2.04-0.27,4.67-0.65,6.2-0.72c1.52-0.09,1.92,0.03-0.58,0.49
						l-0.8,0.04c-0.85,0.61,2.4,0.19,5.82-0.39c3.41-0.66,7-1.4,6.93-1.06c10.12-2.33,19.97-5.3,29.36-9.05
						c9.39-3.76,18.33-8.28,26.54-13.56l-2.29,0.59c1.92-1.2,3.85-2.38,5.7-3.68c1.56-0.87,2.3-0.89-1.72,1.85
						c2.34-1.11,6.51-4.91,6.48-5.17c7.77-5.46-2.46,2.91-0.12,1.18l3.14-2.42l-0.77,0.47c2.4-2.15,2.41-2.6,6.95-6.23
						c2.89-2.28,1.72-0.89,2.84-1.82c0.03,0.04,0.41-0.26,1.7-1.45c2.18-1.85,4.23-3.83,6.35-5.75l-2.9,1.92
						c2.62-2.75,5.77-5.58,2.54-3.26c2.4-1.66,8.16-7.19,13.17-13.01c2.51-2.91,4.94-5.79,6.81-8.17c0.95-1.18,1.79-2.21,2.45-3.04
						c0.65-0.84,1.15-1.46,1.45-1.79c0.72-1.12,1.45-2.22,2.21-3.31c0.75-1.1,1.51-2.22,2.3-3.36c1.59-2.27,3.26-4.67,5.11-7.32
						c-1.03,1.25-2.05,1.7,1.09-2.88c0,1.22,1.52-0.83,3.45-3.6c1.85-2.82,4.09-6.36,5.68-8.04c-1.34,1.55,0.76-1.82,2.47-5.08
						c1.75-3.24,3.33-6.24,1.37-3.71c2.39-3.99,0.58,0,2.59-2.92c4.79-9.99,11.45-21.6,16.47-34.38c-0.08-0.26-1.17,1.77-0.34-1.06
						l3.47-6.41c0.93-2.55-0.07-2.68,2.17-7.13c-0.37,0.61-0.93,1.51-0.38-0.21c4.88-12.49,8.65-25.72,11.56-39.15
						c2.93-13.44,5.16-27.05,7.35-40.53c-0.69,3.64-0.49,1.19-0.23-1.62c-0.26,1.82-0.43-0.08-0.7,0.25l0.88-5.64
						c0.28-1.88,0.47-3.78,0.71-5.67c-0.27-1.06-0.09-4.11,0.08-7.05c0.07-2.94,0.13-5.78-0.17-6.38l0.02,3.61
						c-0.31-2.41-0.77-0.74-1.27,1.42c-0.48,2.17-1.18,4.82-1.61,4.45c0.24,2.68-0.21,6.19-0.83,10.09c-0.32,1.95-0.65,4-0.86,6.12
						c-0.22,2.12-0.31,4.3-0.32,6.5c-0.45,1.89-0.09-1.67-0.45-0.67c0.12,2.24-0.15,4.91-0.98,9.8l-0.03-0.57
						c-0.5,3.44-1.04,6.38-1.51,9.1c-0.25,1.36-0.46,2.67-0.74,3.94c-0.29,1.27-0.57,2.53-0.86,3.79c-0.59,2.53-1.15,5.11-1.88,8
						c-0.76,2.88-1.6,6.07-2.59,9.85l0.73-1.01c-0.41,1.63-0.74,2.59-1.01,3.34c-0.28,0.75-0.48,1.28-0.75,2.02
						c-0.17,1.95,0.47-0.32,1.13-2.63c0.65-2.31,1.2-4.7,1.19-2.89c-0.25,0.51-0.51,1.26-0.82,2.17c-0.32,0.91-0.67,1.98-1.03,3.17
						c-0.73,2.37-1.51,5.18-2.29,7.95c-1.76,5.47-3.42,10.78-4.46,12.02c-1.73,4.87,1.02-1.25-0.71,3.62l-0.74,1.19l-0.08,1.36
						c-1.18,3.18-2.11,4.65-2.41,4.68c0.35-0.75,0.73-2.22,1.01-3.05c-0.85,2.02-2,4.89-2.94,7.46c-0.95,2.56-1.73,4.8-2.06,5.48
						l1.98-4.55c-0.62,1.65-1.27,3.34-1.92,5.07c-0.73,1.7-1.47,3.43-2.21,5.18c-0.76,1.75-1.52,3.52-2.29,5.29
						c-0.83,1.75-1.66,3.51-2.49,5.26c-0.83,1.76-1.66,3.51-2.48,5.24c-0.87,1.71-1.73,3.41-2.57,5.09
						c-0.83,1.68-1.65,3.33-2.45,4.95c-0.79,1.62-1.65,3.16-2.41,4.68l0.71-0.79c-2.4,4.62-3.44,6.44-4.67,8.28
						c-1.24,1.84-2.56,3.77-5.47,8.69l0.17-0.38c-1.03,2.06-2.62,4.67-4.38,7.26c1.42-2.52-3.49,4.19-1.59,0.91
						c-2.98,4.78-3.8,5.92-4.2,6.76c-0.44,0.81-0.49,1.31-2.42,4.53l-1.34,1.15c-1.26,2.23-1.25,2.52-4.75,7.04
						c2.68-3.86-2.71,2.49,0.23-1.87c-4.05,4.41-6.82,7.86-9.13,10.66c-1.14,1.42-2.2,2.63-3.26,3.7c-1.06,1.07-2.09,2.01-3.26,2.77
						c-1.59,2.28,0.39,0.61,2.39-1.49c2.03-2.06,4.15-4.45,3.19-3.24c1.99-1.68-2.52,3.87-5.26,6.46
						c-2.76,2.67-5.46,3.75-12.66,10.04c0.72-0.62,0.72-0.72,1.44-1.34c-1.45,1.06-2.68,2.32-4.08,3.54
						c-1.4,1.21-2.89,2.5-4.74,3.69c-1.6,1.97-4.58,3.4-4.69,4.45l3.47-2.71c1.16-0.9,2.31-1.81,3.42-2.77
						c-3.77,3.25-6.97,6.88-14.15,10.99c0.46-0.48,2.42-1.95,3.72-3.04c-2.08,1.21-3.79,2.67-6.01,3.82
						c0.08-0.55,2.35-1.95,5.02-3.79c1.33-0.93,2.78-1.94,4.15-2.94c1.34-1.03,2.59-2.08,3.56-2.99c-1.14,0.62-3.03,2.3-4.53,3.4
						c-1.49,1.12-2.47,1.82-1.62,0.71c-0.63,0.77-1.44,1.48-2.37,2.19c-0.94,0.7-2.03,1.33-3.17,2.03c-1.16,0.68-2.35,1.45-3.64,2.2
						c-1.28,0.76-2.59,1.61-3.89,2.61l0.14-0.63c-0.83,0.61-2.61,1.76-4.29,2.62l2.73-2.11c-2.19,1.43-4.49,2.49-6.76,3.51
						c-2.32,0.91-4.63,1.77-6.85,2.94c9.53-4.37,2.38-0.46,6.57-1.99c-2.89,1.49-4.79,2.37-6.22,2.93
						c-1.44,0.54-2.43,0.72-3.45,0.94c-1.02,0.21-2.09,0.43-3.74,0.95c-1.64,0.53-3.93,1.17-7.32,2.43
						c1.83-0.71,7.05-2.14,4.22-0.93c-1.32,0.41-2.86,0.87-4.27,1.26c-1.41,0.43-2.74,0.64-3.58,0.78
						c-9.17,2.83,1.55,0.05-2.28,1.49c-3.29,0.42-4.5,1.47-8.56,2.71l-0.14-0.46c-1.34,0.31-2.39,0.52-3.22,0.69
						c-0.83,0.18-1.44,0.33-1.89,0.46c-0.91,0.26-1.21,0.45-1.47,0.63c-0.27,0.18-0.5,0.35-1.28,0.58c-0.77,0.25-2.11,0.5-4.57,0.81
						c1.34-0.47,2.69-0.86,4-1.39c-1.67,0.42-3.37,0.7-5.05,1.06l0.96-0.72c-5.45,1.38-7.23,1.4-12.69,1.97
						c1.31,0.19-0.62,0.95-5.49,1.4c-1.67,0.01-1.21-0.15-1.2-0.22c0.01-0.09-0.42-0.01-3.87,0.2c0.77-0.2,1.57-0.41,2.56-0.54
						c0.99-0.17,2.16-0.26,3.68-0.18c0.29-0.18,1.5-0.44,1.8-0.63c-1.8-0.01-4.03,0.21-6.13,0.38c-2.1,0.16-4.07,0.3-5.32,0.39
						c0.96-0.04,2.11-0.08,2.7-0.04l-4.98,0.61l-5,0.45c-1.58-0.14-0.33-0.32,0.9-0.49c-2.03,0.09-3.43,0.39-6.41,0.38
						c0.39-0.19,0.53-0.39,1.11-0.56c0.58-0.17,1.58-0.29,3.69-0.45c-1.58,0.13-3.17,0.19-4.76,0.24l-4.77,0.18
						c-0.64-0.16-4.87-0.65-3.63-0.74c-1.32-0.11-2.78-0.15-4.35-0.15c-1.57-0.03-3.25-0.06-4.97-0.09
						c-3.46-0.01-7.13-0.25-10.61-0.74c-0.37,0.04-1.11,0.05-2.59-0.08c-6.54-0.88-12.22-2.19-19.96-3.18l-4.17-1.61
						c-5.96-1.24,5.63,2.23-4.32,0.16c-7.02-1.59-2.45-1.24-4.83-2.1c-3.52-0.58-9.72-1.71-15.66-4.65
						C116.56,313.92,118.11,314.65,120.06,315.25z M60.96,272c0.84,1.17,2.76,3.32,3.13,4.35C62.71,275.33,62.16,274.14,60.96,272z
						 M58.05,161.87c-0.28,1.06-0.94,2.6-1.77,4.32C56.73,164.88,57.27,163.41,58.05,161.87z M347.68,136.3
						c-0.06-0.03-0.1-0.04-0.15-0.07C344.85,134.28,345.8,134.98,347.68,136.3z M353.33,140.26c0.61,0.33,0.61,0.25,0.4,0.03
						c-0.47-0.16-1.74-1.05-3.21-2.03C350.87,138.63,351.57,139.19,353.33,140.26z M321.64,286.89l-1.1,0.79
						C322.74,285.58,322.18,286.24,321.64,286.89z"/>
					<path d="M54.42,174.35c-0.2,0.37-0.31,0.46-0.43,0.53C53.9,175.45,53.99,175.49,54.42,174.35z"/>
					<path d="M165.77,324.72l0.23,0.03c0.13-0.02,0.2-0.04,0.24-0.06L165.77,324.72z"/>
					<path d="M255.98,100.04c-1.35-0.34-2.09-0.58-2.58-0.77C253.3,99.37,253.9,99.59,255.98,100.04z"/>
					<path d="M382.49,162.44c-1.08-1.02-2.23-1.96-3.34-2.95c1.6,1.45,2.1,2.03,2.83,2.84
						C381.99,162.18,381.49,161.46,382.49,162.44z"/>
					<path d="M403.93,194.27c0.36,0.53,0.67,1.18,1.03,1.7l0.11-0.26C403.72,193.33,402.63,191.76,403.93,194.27z"/>
					<path d="M384.28,166.47c-0.02,0.51,1.98,2.42,4.13,4.65c-0.13-0.14-0.25-0.27-0.37-0.4
						C389.05,171.02,386.72,168.67,384.28,166.47z"/>
					<path d="M388.9,171.63c0.68,0.67,1.29,1.43,1.88,2.15C391.18,173.92,390.09,172.84,388.9,171.63z"/>
					<path d="M360.66,145.04c1.13,0.94,1.06,0.11,1.63,0.74C363.93,146.3,353.95,140.59,360.66,145.04z"/>
					<path d="M385.05,169.19l-0.39-1.15l-1.51-0.93C383.8,167.79,384.45,168.47,385.05,169.19z"/>
					<path d="M367.35,152.65c1.24,1.07,2.5,2.11,3.73,3.2c0-0.11,0.5,0.26,1.11,0.73C369.92,154.57,367.34,152.48,367.35,152.65z"/>
					<path d="M372.19,156.57c1.19,1.03,2.33,2,3.05,2.51C374.59,158.53,373.19,157.35,372.19,156.57z"/>
					<path d="M380.23,164.54c-0.31-0.37-0.64-0.72-0.98-1.07l-2.52-2.37C377.89,162.25,379.09,163.37,380.23,164.54z"/>
					<path d="M323.11,124.04l-4.79-2.4c-0.56-0.11,0.68,0.68,2.46,1.56C321.97,123.69,323.75,124.57,323.11,124.04z"/>
					<path d="M336.49,133.22c-1.19-0.83-1.22-0.97-1.83-1.53l-0.45,0.45L336.49,133.22z"/>
					<path d="M322.89,125.64c-0.55-0.1-7.05-3.22-1.08-0.06C322.38,125.67,327.11,128.15,322.89,125.64z"/>
					<polygon points="248.23,96.84 249.57,97.05 249.56,96.02 					"/>
					<path d="M177.84,100.25c6.3-0.51,1.42-0.81,7.12-1.17c1.45-0.41-4.66,0.29-3.18-0.09C178.03,99.69,176.02,99.81,177.84,100.25z
						"/>
					<path d="M181.79,98.99c0.6-0.11,1.24-0.24,1.92-0.38C182.61,98.8,182.1,98.91,181.79,98.99z"/>
					<polygon points="420.94,63.58 421.25,59.48 420.85,62.12 					"/>
					<path d="M420.38,55.69l0.67-0.96l-0.53-2.47C420.54,53.19,420.55,54.99,420.38,55.69z"/>
					<path d="M56.81,261.8l-0.27-0.2c0.11,0.62,0.51,1.45,1.29,3.11L56.81,261.8z"/>
					<path d="M91.9,301.21l-0.76-0.53c0.38,0.48,0.74,0.98,1.13,1.44C92.14,301.83,92.02,301.52,91.9,301.21z"/>
					<path d="M133.77,318.04c-1.8-0.47-3.93-0.94-5.71-1.48C131.96,317.59,134.07,318.87,133.77,318.04z"/>
				</g>
			</g>
		</g>
	</g>
</g>
</svg>
