<?xml version="1.0" encoding="utf-8"?>
<!-- Generator: Adobe Illustrator 24.2.1, SVG Export Plug-In . SVG Version: 6.00 Build 0)  -->
<svg version="1.1" id="Layer_1" xmlns="http://www.w3.org/2000/svg" xmlns:xlink="http://www.w3.org/1999/xlink" x="0px" y="0px"
	 viewBox="0 0 500 500" style="enable-background:new 0 0 500 500;" xml:space="preserve">
<style type="text/css">
	.st0{fill:#F04936;}
</style>
<g>
	<g>
		<g>
			<g>
				<g>
					<path class="st0" d="M283.06,355.63c-1.6-0.14-1.07,0.32-1.32,0.38C284.47,356.08,282.99,355.51,283.06,355.63z"/>
					<path class="st0" d="M306.98,347.71l-0.3,0.37c0.99-0.73,1.97-1.45,2.93-2.2C308.75,346.5,307.87,347.11,306.98,347.71z"/>
					<path class="st0" d="M326.2,335.2c-2.17,0.67-6.75,4.82-10.31,6.83l-0.65,0.23l-1.23,1.49
						C318.13,340.98,323.23,337.05,326.2,335.2z"/>
					<path class="st0" d="M336.98,329.2c-0.77,0.24,1.97-1.79-2.34,1.66c0.24-0.14,0.31-0.18,0.46-0.26
						C335.5,330.31,336.05,329.9,336.98,329.2z"/>
					<path class="st0" d="M335.1,330.61C333.18,332.09,336.51,329.83,335.1,330.61L335.1,330.61z"/>
					<path class="st0" d="M343.82,323.57l-2.33,2.21c0.62-0.29,2.86-2.06,2.11-1.3C346.07,322.29,345.44,322.6,343.82,323.57z"/>
					<path class="st0" d="M345.82,321.23l-1.2,1.15C344.89,322.25,345.24,321.98,345.82,321.23z"/>
					<path class="st0" d="M342.04,324.76l2.58-2.39c-0.43,0.2-0.62,0.05-1.2,1.08C343.51,323.11,343.11,323.71,342.04,324.76z"/>
					<path class="st0" d="M340.42,325.92c-1.51,0.98-3.38,2.33-1.02,0.16c-2.36,1.93-3.32,2.82-3.06,2.78
						C336.6,328.84,338.06,327.85,340.42,325.92z"/>
					<path class="st0" d="M326.72,333.92l-2.06,1.2l-1.55,1.36C323.89,335.81,326.98,334.02,326.72,333.92z"/>
					<path class="st0" d="M358.97,310.56c0.04-0.25-1.06,0.46-1.37,0.48l-1.59,1.76C356.96,312.04,358.69,310.51,358.97,310.56z"/>
					<path class="st0" d="M357.6,311.04c0.8-0.87,1.57-1.77,2.34-2.67C357.7,310.6,357.33,311.04,357.6,311.04z"/>
					<path class="st0" d="M345.75,320.26c-1.34,1.39-2.73,2.74-4.11,4.1c1.68-1.59,3.33-3.19,4.96-4.83L345.75,320.26z"/>
					<path class="st0" d="M368.35,300.75l-1.09,1.73c0.67-1.02,1.36-2,2-3.04C368.96,299.89,368.66,300.32,368.35,300.75z"/>
					<path class="st0" d="M374.11,293.81c-0.71,1.35,1.68-1.29,0.82,0.05c1.48-1.97,2.56-3.79,3.48-5.45
						c-0.52,0.86-1.15,1.69-1.85,2.58C375.86,291.87,375.08,292.82,374.11,293.81z"/>
					<path class="st0" d="M379.99,285.64c-0.52,0.85-1.03,1.77-1.58,2.77C378.98,287.5,379.51,286.59,379.99,285.64z"/>
					<path class="st0" d="M364.19,304.1c0.25-0.14,0.81-0.34,2.21-1.75l-1.25,0.75C364.86,303.4,364.53,303.75,364.19,304.1z"/>
					<path class="st0" d="M365.11,303.12l0.04-0.03c1.02-1.11,1.73-1.89,2.03-2.22C366.93,301.16,366.3,301.84,365.11,303.12z"/>
					<path class="st0" d="M363.95,304.36c0.09-0.09,0.16-0.16,0.24-0.25C364.07,304.17,364,304.22,363.95,304.36z"/>
					<path class="st0" d="M352.94,314.46c1.38-1.56,4.31-4.73,1.04-2.12C353.09,313.55,354.99,312.09,352.94,314.46z"/>
					<path class="st0" d="M362.37,305.24c-0.87,0.89-1.79,1.74-2.69,2.61c0.13,0.03,0.73-0.34,0.08,0.48
						C360.64,307.29,361.53,306.29,362.37,305.24z"/>
					<polygon class="st0" points="363.54,303.81 362.37,305.24 363.35,304.26 					"/>
					<path class="st0" d="M375.84,290.63c0.42-0.71,0.9-1.41,1.41-2.15c0.51-0.74,1.05-1.53,1.62-2.35
						c-0.65,0.86-1.32,1.73-1.98,2.59c-0.67,0.86-1.34,1.72-1.98,2.55C374.83,291.59,374.45,292.47,375.84,290.63z"/>
					<path class="st0" d="M370.74,296.81c0.07-0.09,0.15-0.21,0.22-0.29C370.79,296.66,370.66,296.79,370.74,296.81z"/>
					<path class="st0" d="M389.25,269.25c-0.08,0.08-0.14,0.16-0.22,0.24c0.01,0.03,0.02,0.06,0.03,0.1L389.25,269.25z"/>
					<path class="st0" d="M374.62,291.51c-1.04,1.24-1.6,2.03-2.06,2.84c0.73-0.96,1.51-1.98,2.35-3.08
						C374.94,291.12,374.92,291.08,374.62,291.51z"/>
					<path class="st0" d="M382.92,280.93c-0.54,0.66-1.14,1.41-1.76,2.21C381.74,282.53,382.86,281.24,382.92,280.93z"/>
					<path class="st0" d="M371.41,296.18c-0.05,0.07-0.09,0.13-0.14,0.2C371.68,296.03,371.6,296.05,371.41,296.18z"/>
					<path class="st0" d="M371.41,296.18c0.48-0.69,0.81-1.26,1.15-1.83c-0.58,0.79-1.13,1.53-1.6,2.17
						C371.11,296.38,371.28,296.26,371.41,296.18z"/>
					<path class="st0" d="M389.43,262.7c0.13,0.22-0.18,1.3-0.79,2.72c-0.3,0.71-0.67,1.5-1.1,2.3c-0.45,0.79-0.94,1.59-1.47,2.34
						c-1.43,3.28,0.8,1.89,2.95-0.57c-0.11-0.18-0.2-0.24,1.23-3.68c-0.71,1.11-4.26,7.05-3.1,4.13c1.09-2.19,1.54-3.08,1.92-3.66
						c0.38-0.58,0.67-0.85,1.3-1.87c-1.27,1.62,1.94-5.96,0.82-5.27l-1.52,3.98C389.54,263.15,390.01,261.66,389.43,262.7z"/>
					<path class="st0" d="M385.52,275.67c-0.25,0.45-0.48,0.9-0.74,1.35c0.95-1.47,1.72-2.47,3.13-4.32
						c1.05-2.35,1.17-2.88,1.13-3.1l-1.82,3.31l-1.92,3.25L385.52,275.67z"/>
					<path class="st0" d="M381.07,282.81c0.15-0.62,0.71-1.71,1-2.45c0.28-0.75,0.33-1.14-0.46-0.32c-2.46,3.73-1.42,2.82-2.8,5.12
						c3.99-6.04-0.95,1.87,2.18-2.33c-0.73,1.23-1.43,2.3-2.13,3.29c0.81-1.02,1.57-2.03,2.3-2.98c-0.05,0.05-0.08,0.08-0.12,0.12
						l-0.02,0.03l0-0.01c-0.22,0.23-0.3,0.3-0.08,0.02c0.01-0.02,0.06-0.1,0.08-0.13C381.01,283.1,381.04,282.96,381.07,282.81
						c1.25-1.7,0.28-0.21-0.05,0.36c0,0.03-0.01,0.09,0,0.11l0.02-0.02c1.31-2.04,2.52-4.15,3.74-6.25
						C383.9,278.27,382.96,279.96,381.07,282.81z"/>
					<path class="st0" d="M356.12,309.02c0.19-0.13,0.2-0.1,0.24-0.09C356.65,308.58,356.75,308.43,356.12,309.02z"/>
					<path class="st0" d="M358.4,307.14c-0.33,0.41-0.5,0.86-1.76,2c-1.15,0.93-0.14-0.15-0.29-0.2c-0.66,0.79-2.37,2.7,0.09,0.63
						l0.33-0.39c2.17-1.91,5.17-4.2,4.85-3.8C360.76,305.72,360.02,306.04,358.4,307.14z"/>
					<path class="st0" d="M370.36,295.35c1.2-1.61,2.44-3.18,3.58-4.82c-0.71,0.74-1.45,1.45-2.18,2.16l0.27,0.02
						C369.82,295.31,370.5,294.92,370.36,295.35z"/>
					<path class="st0" d="M389.76,268.73l0.02,0.92c0.38-1.12,0.67-2.29,1.01-3.43L389.76,268.73z"/>
					<path class="st0" d="M393.12,261.59l0.24,0.43l0.63-2C393.72,260.54,393.41,261.06,393.12,261.59z"/>
					<path class="st0" d="M128.35,143.58l-0.83,1.52C127.92,144.39,128.17,143.93,128.35,143.58z"/>
					<path class="st0" d="M135.4,133.25l0.02-0.37C135.17,133.42,135.1,133.66,135.4,133.25z"/>
					<path class="st0" d="M345.54,89.56c-2.12-1.53-4.49-3.28-4.41-2.74l0.53,0.73C343.33,88.25,344.53,88.95,345.54,89.56z"/>
					<path class="st0" d="M217.88,75.1c0.25-0.01,0.5-0.03,0.76-0.04c0.57-0.28,1.11-0.55,1.59-0.79
						C219.52,74.52,218.72,74.8,217.88,75.1z"/>
					<path class="st0" d="M216.58,77.27l-3.28,0.59C214.04,77.76,215.1,77.57,216.58,77.27z"/>
					<path class="st0" d="M102.39,206.58l-0.05,2.07C103.09,205.58,102.54,206.88,102.39,206.58z"/>
					<path class="st0" d="M400.21,182.42c-0.22-2.21-0.47-3.97-0.75-5.49C399.72,179.6,399.74,181.79,400.21,182.42z"/>
					<path class="st0" d="M127.19,136.86c-0.55,0.94-0.7,1.39-0.61,1.41C127.1,137.29,127.41,136.74,127.19,136.86z"/>
					<path class="st0" d="M398.19,170.66c0.05,0.39,0.09,0.77,0.14,1.17c0.41,1.57,0.77,3.16,1.13,5.11
						C399.27,174.96,398.94,172.72,398.19,170.66z"/>
					<path class="st0" d="M282.73,313.15c0.18,0.05,0.39,0.11,0.55,0.15C283.35,313.25,283.1,313.2,282.73,313.15z"/>
					<path class="st0" d="M354.31,329.65c-0.73-0.01-1.92-0.1-3.04-0.2C351.81,329.52,352.72,329.62,354.31,329.65z"/>
					<path class="st0" d="M402.34,231.17C402.13,232.84,402.35,231.44,402.34,231.17L402.34,231.17z"/>
					<path class="st0" d="M399.15,238.84c0.03-0.35,0.03-0.63-0.05-0.69C399.17,238.3,399.18,238.54,399.15,238.84z"/>
					<path class="st0" d="M391.99,155.24c-0.01-0.05-0.02-0.08-0.03-0.14C391.99,155.59,391.98,155.51,391.99,155.24z"/>
					<path class="st0" d="M401.76,233.64c0.19-0.61,0.31-1.33,0.46-2.11C402.15,231.88,402.01,232.52,401.76,233.64z"/>
					<path class="st0" d="M402.02,233.34c-0.13,0.57-0.22,1.01-0.32,1.44C401.74,235,401.82,234.82,402.02,233.34z"/>
					<path class="st0" d="M402.66,228.84c-0.13,0.95-0.28,1.84-0.44,2.69c0.08-0.32,0.12-0.46,0.12-0.37
						C402.41,230.68,402.51,229.99,402.66,228.84z"/>
					<path class="st0" d="M150.14,291.02c0.1,0.04,0.22,0.09,0.33,0.14C152.09,291.44,151.39,291.27,150.14,291.02z"/>
					<path class="st0" d="M304.02,78.48c0.08,0.01,0.12,0.02,0.19,0.02c-0.07-0.02-0.16-0.05-0.23-0.07L304.02,78.48z"/>
					<path class="st0" d="M298.28,77.41c2.54,0.03,3.9,0.46,5.7,1.02l-1.57-1.68C301.02,76.97,299.65,77.15,298.28,77.41z"/>
					<path class="st0" d="M114.38,170.1l2.07-3.55c-1.54,4.72-3,7.95-1.06,4.63c-0.52-0.54,1.13-4.15,2.75-7.77
						c1.73-3.57,3.55-7.09,3.07-7.67c0.48-0.76,1.01-1.5,1.54-2.23c-0.39,0.67-0.39,0.81-0.77,1.47c1.57-2.12,1.85-3.08,2.16-4.24
						c0.16-0.58,0.33-1.21,0.68-2.06c0.35-0.85,0.87-1.92,1.84-3.31c1.36-1.94,2.4-3.22,1.68-1.78c0.86-1.53,1.66-3.1,2.57-4.6
						c0.9-1.23,0.88-0.8-0.02,0.43l4.53-6.61l0,0.07c0.51-1.04,1.86-3.27,2.53-4.36c1.41-1.48-0.52,0.89-0.06,0.59l2.49-3.71
						c0.74-0.56,0.53-0.13-0.03,0.81c-0.57,0.93-1.55,2.3-2.52,3.49c1.81-1.21,2.3-1.98,3.12-3.27c0.84-1.27,2.09-2.99,5.3-6.09
						l-2.61,3.26c1.17-0.76,2.24-1.79,3.44-3.04c1.23-1.22,2.68-2.58,4.47-4.09c-0.48,0.31-2.33,1.78-3.69,2.72
						c-0.69,0.46-1.22,0.82-1.4,0.83c-0.18,0.01-0.05-0.39,0.74-1.3c1.02-0.9,2.3-2.14,3.91-4.19c0.18,0.16,0.69-0.23,1.43-0.95
						c0.75-0.7,1.79-1.67,2.95-2.75l0.28,0.62c2.39-2.43,1.97-2.5,3.27-4.07c3-2.35,3.93-2.47,4.88-2.7
						c4.78-3.75-3.75,2.03,1.76-2.61c2.14-1.38,3.89-2.63,5.69-4.03c0.45-0.35,0.91-0.71,1.38-1.07c0.48-0.35,0.98-0.7,1.49-1.07
						c1.03-0.74,2.11-1.57,3.37-2.43c3.18-1.6-0.34,0.65,0.86,0.16l2.46-2.03c0.67-0.38,0.53-0.12,0.46,0.02
						c2.22-1.46-0.13-0.67,3.49-2.8c0.66-1.24,8.13-2.92,12.61-5.57c1.26-0.3-0.43,0.59,0.03,0.68c3.2-1.54,4.59-2.18,5.84-2.72
						c0.62-0.29,1.21-0.56,1.97-0.92c0.76-0.38,1.7-0.81,3.05-1.4c1.64-0.34,3.25-0.74,4.9-1.01c-3.66,0.51,0.68-1.31,4.59-2.76
						c-1.34,0.05-2.46,0.18-3.22,0.27c2.09-0.72,4.23-1.27,6.36-1.89c0.8-0.08,0.2,0.29-0.8,0.79c0.43-0.16,0.83-0.31,1.15-0.42
						c2.37-0.25,1.23,0.33-0.33,1.07c-0.81,0.05-1.62,0.1-2.4,0.15c-1.5,0.73-2.86,1.54-2.44,1.82c0.39-0.19,1.17-0.45,2.04-0.68
						c-0.39,0.2-0.63,0.35-0.42,0.37c0.23,0.02,0.86-0.28,1.87-0.68l1.6,0.36l0.29-0.36c1.4-0.26,2.82-0.41,4.23-0.63l2.11-0.3
						l2.12-0.23c2.95-0.87,5.73-1.65,8.99-2.42c1.63-0.34,3.39-0.7,5.35-1.01c1.96-0.25,4.12-0.56,6.57-0.69
						c-2.41,0.59-0.49,0.87-0.6,1.49c-1.34-0.3-3.22-0.08-5.39,0.17c-2.17,0.29-4.61,0.72-7.12,0.93c2.62-0.23,2.07,0.16,1.42,0.31
						l4.43-0.71c1.48-0.22,2.97-0.38,4.46-0.58c-0.18,0.51,1.92,0.26,4.27,0.42c-0.9-0.47,0.77-0.7,3.12-0.82
						c2.36-0.04,5.39-0.1,7.23-0.14c0.22,0.37-0.67,0.58-5.12,0.52c1.23,0.19,2.24,0.21,3.14,0.16c0.9-0.03,1.7-0.16,2.49-0.28
						c1.59-0.26,3.18-0.54,5.58-0.04c-1.09-0.06-1.67-0.15-2.11-0.01c1.28-0.06,3.47,0.06,5.16,0.23c1.68,0.22,2.85,0.46,2.11,0.54
						l-1.08-0.1c3.6,0.38,9.07,0.98,13.76,1.66c4.7,0.64,8.63,1.22,9.25,0.94c0.05,0.12-1.14,0.8-1.6,0.88
						c4.39-0.05,8.84,0,13.29,0.26c-1.29,0.4,2.45,3.24-3.44,2.05c1.63,0.56,3.66,1.2,7.2,2.01c-1.08-0.46-2.51-1.86-0.94-1.47
						c2,1.04,2.69,1.37,3.52,1.73c0.83,0.34,1.78,0.74,4.23,1.95c-1.62-0.71,0.61-1.19,3.24-0.21c-0.47,0.01-0.17,1.14-1.16,0.9
						c2.28,0.46,4.6,0.88,6.88,1.41c-1.68-0.47-0.63,0.77,0.68,1.65c-0.29-0.24,1.09,0.33,2.76,1.04c1.66,0.74,3.59,1.64,4.46,1.97
						l-2.58-1.43c3.55,1.63,5.44,2.14,7.36,2.61c1.92,0.46,3.84,0.95,7.27,2.82c-0.95-0.25-2.71,0.15,0.67,2.16
						c1.82,0.37,8.4,1.5,14.35,5.38l0.88,1.07c1.5,1,2.97,2.03,4.41,3.13c-1.55-0.79-4.44-2.3-7.54-3.73
						c-3.11-1.44-6.43-2.81-8.76-3.77c2.35,1.73,0.51,0.72,4.17,3.04c0.55,0.56,0,0.32-0.83-0.13c-0.84-0.43-1.94-1.09-2.49-1.41
						c2.82,1.81,5.56,3.73,8.16,5.79c0.01-0.2,0.43-0.05,1.04,0.29c0.6,0.35,1.4,0.89,2.2,1.43c0.78,0.56,1.56,1.14,2.15,1.52
						c0.58,0.4,0.97,0.62,0.99,0.45c-2.85-2.28-5.86-4.35-8.97-6.24c0-0.39,1.6,0.08,3.85,1.34c2.25,1.24,5.17,3.27,7.71,5.85
						c1.1,1.48-1.8-0.12-1.86,0.18c0.42,0.23,1.7,1.32,2.89,2.48c1.19,1.15,2.24,2.38,2.39,2.68c-0.74-0.69-1.48-1.37-2.26-2
						c0.63,0.75,1.24,1.41,1.84,2.02c0.62,0.6,1.21,1.18,1.8,1.81c0.6,0.61,1.2,1.27,1.75,2.05c0.28,0.39,0.57,0.8,0.85,1.25
						c0.27,0.46,0.52,0.96,0.77,1.5c0.44,0.69,0.88,1.85,1.26,2.84c0.4,0.98,0.71,1.81,0.95,1.84c-0.58-2.69,1.11-4.38,2.57-3.05
						c0.07,0.13,0.34,0.72,0.68,1.55c0.35,0.83,0.81,1.91,1.21,3.05c0.43,1.13,0.83,2.31,1.13,3.33c0.33,1.01,0.54,1.88,0.63,2.36
						c0.23,1.4-0.49,0.56-1.21-0.31c-0.73-0.87-1.5-1.76-1.27-0.6c0.22,0.01,0.99,1.33,1.29,1.89c0.48,1.69-0.75-0.48,0.63,3.04
						c0.9,0.35,2.42,7.34,1.14,1.5c0.69,1.73,0.97,2.69,1.22,3.73c0.27,1.04,0.52,2.17,1.14,4.27c0.05-1.48,2.51,3.41,3.57,7.04
						c-0.22-0.18-0.24,0.7-0.24,1.12c1.7,7.52,2.28,11.63,3.74,18.66c-0.03,0.68,0.44,4.12-0.13,2.73c0.32,0.99,0.73,1.87,1.14,4.05
						c0.2,4.31-0.98-4.83-1.09-1.49c0.45,0.2,1.58,5.51,2.29,8.59c0.49-1.06-1.08-7.2-1.93-10.25c0.82-0.18,2.79,5.05,4.28,12.47
						c1.01,5.92-0.19,2.65,0.07,3.67c0.61,5.59,1.14,7.96,1.61,10.1c0.22,1.07,0.42,2.09,0.57,3.43c0.09,1.34,0.18,3.01,0.04,5.37
						c-0.53,3.74-1.07,0.17-1.46,1c-0.21-4.86,0.14-7.49-0.1-10.79l0,4.08c-0.26-1.54-0.6-4.77-0.63-6.54
						c-0.1,1.56,0.29,6.28,0.35,11.71c0.08,5.42-0.3,11.55-1.07,15.8c-0.02,1.54-0.24,4.19,0.16,2.98l0.32-2.72
						c0.34-1.23,0.38,0.08,0.31,1.25c-0.05,1.18-0.11,2.24,0.24,0.53c-0.06,0.93-0.11,1.89-0.17,2.88
						c-0.09,0.99-0.22,2.02-0.35,3.09c-0.08,0.54-0.15,1.08-0.23,1.65c-0.1,0.56-0.22,1.12-0.35,1.7c-0.27,1.15-0.53,2.37-0.95,3.62
						l-0.86,0.79c0.1-0.03,0.43-0.82,0.73-1.8c0.28-0.98,0.55-2.14,0.63-2.88c-0.19,2.21-2.75,7.52-2.79,9.99
						c0.5-1.12,1.05-2.23,1.49-3.37c-0.35,1.84-0.8,3.89-1.32,6.05c-0.59,2.13-1.26,4.37-2.27,6.48c0.68-0.87,0.77-1.12,0.92-1.51
						c0.16-0.39,0.38-0.91,1.27-2.35c-0.93,1.19,0.18-1.59,1.03-4.22c0.43-1.32,0.84-2.58,0.99-3.26c0.13-0.69,0.05-0.77-0.51,0.27
						c0.87-1.51,1.34-2.92,1.85-4.45c0.44-1.55,0.93-3.22,1.73-5.34c-0.22,0.1-0.68,1.48,0.16-2.37c-0.02-0.19-0.02-0.61-0.01-0.88
						c0.03-0.12,0.04-0.16,0.06-0.26c-0.02,0.08-0.04,0.13-0.06,0.21c0-0.17,0-0.19-0.02,0.08c-0.26,0.91-0.51,1.63-0.68,1.91
						c-0.02-1.99,0.92-8.13,0.82-10.25c0.34-2.29,0.13,0.99,0.48-0.25c0.01-1.05-0.05-2.11-0.1-3.16c0.49-0.27,1.11-6.13,1.05-0.63
						c0.14-1.65,0.17-3.29,0.23-4.94c0.19-1.45,0.23-3.18,0.27-4.85c0-1.67-0.09-3.29-0.22-4.51c-0.04-2.33-0.85-5.82-0.38-3.83
						c-0.29-2.56-0.61-5.11-1-7.64l0.1-0.08c-0.81-7.56-2.97-15.29-3.92-23.87c-0.62-2.46-1.3-4.99-2.1-9.14l0.2-0.89
						c-0.82-3.13-1.82-9.62-2.58-10.89c0.08-1.84-0.87-5.72-2.2-9.81c-1.32-4.1-3.1-8.36-4.21-11.09l-0.55,0
						c-1.6-3.7-3.47-7.14-6.38-11.27l-0.21,0.5c-1.31-1.72-2.86-4.02-4.75-6.47c-1.88-2.45-4.15-5.03-6.71-7.29
						c0.45,0.2,1.72,1.38,2.5,2.33c-2.56-3.24-6.02-5.9-9.53-8.17c-3.52-2.28-7.08-4.23-10.06-6.37c-1.65-0.77-2.78-1.45-3.85-2.16
						c0.15,0.08,0.29,0.15,0.41,0.2c-0.16-0.09-0.4-0.23-0.65-0.36c-0.67-0.44-1.37-0.9-2.12-1.39c0.62,0.45,1.23,0.87,1.77,1.2
						c-1.24-0.65-3.15-1.58-5.06-2.4l-0.59-0.81c-0.15-0.07-0.28-0.12-0.44-0.2c-1.77-1.04-1.58-0.5-0.75,0.29
						c-0.98-0.38-1.88-0.71-2.6-0.92c-0.58-0.72-1.86-1.19-3.19-1.72c-1.34-0.53-2.73-1.1-3.63-1.89
						c-1.43-0.21-9.82-3.56-11.17-3.03c-0.03-0.13-0.59-0.37,0.47-0.02c-2.15-0.83-4.29-1.7-6.35-2.05l-0.75-0.87l-2.53-0.35
						l-2.54-0.28c-2.84-1.18-4.02-1.73-0.96-1.37c-7.29-1.15-5.85-1.25-12.09-1.88l0.38-0.32c-2.19-0.46-5.79-0.55-7.05-1.12
						c-2.4-0.75-8.49-1.82-15.63-2.4c-7.13-0.64-15.27-0.83-21.7-0.93c1.26,0.55-0.23,0.44-2.1,0.36c-1.87-0.05-4.13-0.11-4.35,0.35
						c-0.77-0.24-2.57-0.23-0.51-0.64c-3.26,0.43-5.73,0.5-7.93,0.76c-2.2,0.22-4.15,0.48-6.33,1.24c-0.79-0.15,1.33-0.62,0.64-0.68
						c-0.51,0.14-2.03,0.57-2.73,0.51c-0.69-0.06,0.91-0.38,1.93-0.66c-3.33,0.52-5.1,1.17-6.09,1.67
						c-0.99,0.52-1.19,0.98-1.35,1.41c-1.69,0.16-2.94,0.39-4.06,0.68c-1.12,0.29-2.09,0.66-3.2,1.24c-1.2,0.05-3.18,0.3,0.82-0.87
						c-1.13,0.31-4.63,1.05-7.79,2.07c-1.59,0.47-3.1,0.97-4.2,1.43c-1.11,0.45-1.82,0.8-1.82,0.97c-0.37,0.05-1.15,0.29-1.9,0.59
						c-0.74,0.31-1.46,0.64-1.73,0.79c-1.23,0.47-2.17,0.82-2.98,1.13c-0.79,0.33-1.45,0.61-2.1,0.88
						c-1.29,0.57-2.61,1.06-4.91,2.24l1.33-0.52c-1.49,1.6-3.81,1.94-7.41,4.01l0.07-0.13c-2.18,0.97-3.44,1.68-4.29,2.16
						c-0.85,0.48-1.27,0.77-1.7,1.05c-0.86,0.54-1.65,1.13-5.79,3.39l0.7,0.12c-0.1,0.64-1.84,1.74-4.13,3.08
						c-1.14,0.67-2.42,1.42-3.67,2.21c-1.2,0.86-2.37,1.78-3.36,2.71l1.7-1.02c-1.04,1.07-2.87,2.1-4.75,3.11
						c-1.86,1.02-3.68,2.14-4.85,3.09c-0.54,0.38,0.67-0.81,1.3-1.47c-6.22,4.9-0.37,1.12-4.51,5.25c-0.99,0.53,0.37-1.62-2.44,1.17
						c-0.39,0.3-1.04,1.02-1.86,1.97c-0.82,0.95-1.82,2.13-2.79,3.46c-1.97,2.65-4.35,5.48-6.2,7.45c0.94-0.77,1.86-1.53,0.34,0.73
						c-0.62,0.83-1.41,1.76-2.28,2.74c-0.44,0.49-0.89,1-1.34,1.51c-0.45,0.52-0.87,1.07-1.3,1.61c-1.71,2.17-3.35,4.34-4.06,6.12
						c-0.34,0.41-0.51,0.54-0.57,0.52c-0.76,1.4-2.07,3.63-3.27,5.73c-1.2,2.1-2.12,4.18-2.43,5.1c-0.72,0.43-1.65,1.74-2.66,3.45
						c-0.94,1.75-1.93,3.91-2.87,5.98c-0.98,2.06-1.76,4.1-2.44,5.55c-0.68,1.45-1.24,2.34-1.58,2.17l-1,2.22l-0.92,2.26l-1.82,4.52
						l-0.05-0.29c-0.3,0.72-0.58,1.38-0.84,1.99c-0.22,0.62-0.42,1.2-0.61,1.72c-0.36,1.06-0.64,1.95-0.85,2.72
						c-0.44,1.55-0.64,2.64-0.84,3.73c-0.57,1.32-0.37,0.29-0.4,0.15c-1.55,4.28-2.39,6.64-3.01,8.87
						c-0.56,2.25-0.94,4.37-1.61,8.13c-0.24,0.21-0.46,0.43-0.68,0.64c-0.1,1.04-1.07,4.18-2.2,8.18
						c-1.07,4.02-2.13,8.96-2.39,13.47c-0.04-0.09-0.11-0.29-0.09-1.01c-0.4,5.05-1.21,11.1-1.12,16.46
						c0.05,5.35,0.87,9.95,2.26,11.55l0.51,1.62l0.61,1.59l0.62,1.58c0.22,0.52,0.48,1.02,0.72,1.54c-0.19-0.51-0.36-0.95-0.5-1.34
						c-0.12-0.39-0.2-0.72-0.28-1c-0.14-0.55-0.21-0.88-0.22-1.06c-0.02-0.35,0.17-0.07,0.42,0.35c0.5,0.85,1.19,2.27,0.8,0.54
						c0.25,0.8,0.63,1.68,0.91,2.55c0.29,0.86,0.54,1.68,0.77,2.26c0.41,1.18,0.38,1.54-0.59-0.31c-0.07-0.21-0.14-0.42-0.19-0.63
						c-0.74-0.52,0.24,2.01,1.66,4.54c0.37,0.62,0.74,1.26,1.08,1.85c0.35,0.6,0.74,1.12,1.04,1.59c0.59,0.95,1,1.56,0.84,1.61
						c2.71,3.41,5.85,6.39,9.23,8.98c3.39,2.57,7,4.76,10.68,6.68c7.39,3.84,15.06,6.54,22.62,8.87l-1.53-1.24
						c1.74,0.58,3.51,1.07,5.27,1.6c1.34,0.56,1.72,1.09-2.06-0.03c1.87,1,6.46,1.42,6.6,1.29c3.68,1.11,2.92,1.1,1.49,0.95
						c-1.42-0.18-3.48-0.58-2.34-0.27c1.04,0.26,2.08,0.52,3.12,0.75l-0.68-0.25c2.6,0.31,2.89,0.11,7.48,1.18
						c2.88,0.8,1.4,0.78,2.54,1.05c-0.02,0.05,0.37,0.15,1.76,0.39c2.26,0.51,4.52,0.96,6.79,1.43l-2.61-1.1
						c3.06,0.33,6.39,1.24,3.37,0.02c2.21,0.93,8.54,2.18,14.68,3.15c6.14,0.99,12.07,1.78,13.47,2.15
						c4.3,0.22,8.48,0.83,13.64,1.67c-1.27-0.31-1.94-1.07,2.51-0.32c-1.83,1.07,8.08,1.82,11.53,3.35
						c-3.12-1.15,12.69,1.85,7.78,0.16c3.7,0.71,0.15,0.53,2.92,1.3c8.93,0.92,19.43,3.53,30.36,5.27c0.2-0.14-1.58-0.73,0.8-0.58
						l5.6,1.88c2.17,0.3,2.16-0.65,5.99,0.66c-0.53-0.25-1.32-0.62,0.14-0.41c10.6,2.35,21.52,4.21,32.46,6.26
						c10.95,2.03,21.93,4.21,32.98,6.04c-2.98-0.64-0.97-0.45,1.33-0.27c-1.49-0.21,0.07-0.43-0.2-0.69
						c3.07,0.51,6.17,0.87,9.28,1.19c0.43-0.15,1.27-0.24,2.31-0.28c1.04-0.03,2.27-0.04,3.48-0.1c2.42-0.04,4.74-0.27,5.2-0.6
						l-2.95,0.31c1.94-0.52,0.54-0.79-1.25-1.19c-0.9-0.19-1.89-0.39-2.62-0.6c-0.73-0.23-1.21-0.47-1.07-0.71
						c-2.15,0.43-5.01,0.08-8.17-0.4c-3.17-0.44-6.64-1.02-10.23-0.83c-1.53-0.39,1.36-0.14,0.56-0.46c-1.83,0.18-4,0-7.95-0.8
						l0.47-0.03c-11.2-1.69-15.88-3.17-28.4-5.82l0.84,0.64c-2.69-0.58-3.23-0.83-4.47-1.19c-3.23,0.11,7.58,1.48,4.61,1.72
						c-3.4-1.65-19.05-3.6-21.28-5.11c-4.16-0.76,1.12,0.76-3.04,0l-1.05-0.49l-1.12,0.19c-2.72-0.55-4.03-1.16-4.09-1.43
						c0.66,0.15,1.9,0.27,2.61,0.37c-3.48-0.98-10.01-1.65-11.2-1.98l3.97,0.88c-11.42-1.74-25.25-4.45-36.36-5.62l0.8,0.36
						c-8.47-0.93-6.7-1.32-15.97-2.56l0.34,0c-1.88-0.06-4.37-0.33-6.9-0.74c2.37,0.09-4.32-1.17-1.21-0.99
						c-9.2-0.93-4.57-0.33-10.72-0.41l-1.34-0.57c-2.1,0.02-2.3,0.18-6.93-0.43c3.83,0.26-2.86-1.01,1.44-0.78
						c-9.53-2.27-14.47-1.47-18.67-3.41c-4.6,0.23,8.22,2.02,5.72,1.79c2.02,0.68-3.78,0.15-6.79-0.51
						c-3.07-0.6-4.99-2.2-12.64-3.81c0.76,0.17,0.83,0.1,1.59,0.26c-1.41-0.42-2.82-0.64-4.32-0.92c-1.49-0.26-3.07-0.57-4.75-1.22
						c-2.11,0.14-4.5-1.18-5.26-0.56c2.32,0.57,4.67,1.07,7.01,1.58c-3.99-0.76-7.96-0.76-14.28-3.11c0.54,0.01,2.53,0.35,3.87,0.61
						c-1.82-0.76-3.67-0.88-5.54-1.73c0.77-0.54,8.4,2.33,12.78,2.77c-1.95-0.81-8.1-1.55-5.76-1.8c-3.32,0.18-7.34-2.22-12.58-3.16
						l0.48-0.34c-0.82-0.19-2.52-0.54-3.95-1.09l2.81,0.35c-4.2-0.9-7.49-3.27-11.23-4.71c3.82,1.75,4.24,2.01,4.04,2.14
						c-0.2,0.12-0.99,0.05,0.62,0.89c-4.98-1.72-6.19-2.74-7.5-3.8c-0.66-0.52-1.32-1.12-2.46-1.89c-1.13-0.8-2.72-1.8-5.09-3.37
						c0.63,0.44,1.83,1.26,2.58,1.88c0.77,0.58,1.1,0.95-0.01,0.41c-1.81-1.25-4.09-3.03-4.94-4.08c-1.51-1.12-2.14-1.71-2.41-1.84
						c-0.26-0.15-0.09,0.08,0.17,0.41c0.53,0.65,1.46,1.69,0.15,0.74c-0.39-0.53-0.77-0.94-1.16-1.28
						c-0.38-0.36-0.76-0.66-1.18-0.96c-0.86-0.58-1.78-1.24-2.97-2.43l0.35-0.33c-1.32-1.69-2.01-2.67-2.5-3.23
						c-0.5-0.55-0.71-0.72-0.94-0.85c-0.22-0.13-0.43-0.25-0.82-0.76c-0.19-0.26-0.43-0.61-0.74-1.12c-0.3-0.51-0.59-1.22-1-2.11
						c0.69,0.89,1.35,1.78,2.14,2.58c-0.79-1.09-1.36-2.31-2.03-3.48l0.86,0.51c-0.6-0.91-0.99-1.73-1.33-2.46
						c-0.33-0.74-0.67-1.37-0.86-2.06c-0.22-0.68-0.42-1.36-0.64-2.13c-0.22-0.77-0.35-1.66-0.58-2.71
						c-0.08,1.05-1.07-0.33-1.68-4.19c0-2.68,0.58,1.42-0.02-4.05c0.18,0.61,0.41,1.24,0.58,2.02c0.19,0.77,0.21,1.71,0.21,2.9
						c0.2,0.22,0.51,1.14,0.7,1.36c-0.28-2.78-0.8-7-0.89-8.99c0.01,0.76,0.05,1.67,0.01,2.14l-0.28-1.97l-0.19-1.99
						c-0.15-1.33-0.19-2.67-0.27-4.01c0.22-1.26,0.33-0.24,0.45,0.75c-0.02-1.62-0.14-2.75,0-5.15c0.33,0.65,0.75,0.55,0.71,3.9
						l0.05-3.8c0.07-1.27,0.11-2.54,0.2-3.82c0.24-0.49,1-3.82,1.01-2.82c0.23-1.04,0.4-2.2,0.56-3.46c0.17-1.26,0.35-2.6,0.53-3.98
						c0.37-2.77,0.96-5.71,1.77-8.44c0-0.31,0.07-0.9,0.3-2.09c0.71-2.58,1.58-4.96,2.35-7.49c0.39-1.26,0.79-2.55,1.21-3.91
						c0.41-1.36,0.8-2.79,1.16-4.34l0.89-1.6l0.95-1.57c1.56-4.71-2.51,4.28,0.09-3.58c1.82-5.58,1.29-1.85,2.23-3.69
						c0.8-2.8,1.96-7.83,4.82-12.44C115.71,167.34,115.03,168.57,114.38,170.1z M147.12,118.78c-0.77,0.9-2.04,2.93-2.83,3.38
						C144.77,120.79,145.61,120.13,147.12,118.78z M226.96,74.12c-0.84,0.33-2.2,0.51-3.76,0.63
						C224.3,74.5,225.55,74.27,226.96,74.12z M403.22,212.8c-0.01-0.05-0.02-0.09-0.02-0.13
						C403.36,209.94,403.3,210.91,403.22,212.8z M402.92,218.45c0.05,0.57,0.12,0.53,0.19,0.3c-0.11-0.4-0.08-1.67,0-3.12
						C402.98,216.03,402.87,216.76,402.92,218.45z M166.42,298.36l-1.04-0.35C167.81,298.38,167.12,298.36,166.42,298.36z"/>
					<path class="st0" d="M216.76,77c-0.34,0.01-0.46-0.05-0.56-0.12C215.77,77.08,215.78,77.17,216.76,77z"/>
					<path class="st0" d="M102.4,206.2l-0.05,0.18c0,0.11,0.02,0.17,0.04,0.2L102.4,206.2z"/>
					<path class="st0" d="M383.82,134.74c-0.35-1.07-0.5-1.69-0.59-2.1C383.1,132.63,383.22,133.13,383.82,134.74z"/>
					<path class="st0" d="M398.63,248.2c0.35-1.16,0.62-2.36,0.91-3.54c-0.46,1.71-0.71,2.29-1.07,3.11
						C398.6,247.72,398.97,247.11,398.63,248.2z"/>
					<path class="st0" d="M383.03,275.37c-0.21,0.48-0.58,0.94-0.79,1.41l0.27,0C383.68,274.89,384.25,273.43,383.03,275.37z"/>
					<path class="st0" d="M396.07,250.89c-0.48,0.14-1.11,2.3-1.93,4.68c0.06-0.14,0.11-0.27,0.16-0.41
						C394.58,256.06,395.34,253.47,396.07,250.89z"/>
					<path class="st0" d="M393.94,256.12c-0.28,0.73-0.57,1.46-0.87,2.16C393.16,258.64,393.47,257.42,393.94,256.12z"/>
					<path class="st0" d="M402.7,225.64c-0.23,1.19,0.44,0.81,0.2,1.47c0.19,0.7,0.24-1.33,0.2-2.7c-0.03-0.68-0.11-1.21-0.17-1.14
						C402.86,223.34,402.82,223.99,402.7,225.64z"/>
					<path class="st0" d="M394.12,252.35l0.78-0.67c0.03-0.49,0.08-0.96,0.09-1.45C394.72,250.94,394.41,251.64,394.12,252.35z"/>
					<path class="st0" d="M399.6,233.42l-0.89,3.9c0.1-0.04,0.03,0.46-0.08,1.08C399.21,236,399.75,233.35,399.6,233.42z"/>
					<path class="st0" d="M398.63,238.4c-0.3,1.25-0.57,2.44-0.66,3.15C398.13,240.88,398.46,239.42,398.63,238.4z"/>
					<path class="st0" d="M395.72,247.15l0.46-1.09l0.79-2.7C396.55,244.62,396.2,245.9,395.72,247.15z"/>
					<path class="st0" d="M399.59,190.63l-0.8-4.29c-0.24-0.41-0.16,0.78,0.15,2.37C399.22,189.72,399.52,191.31,399.59,190.63z"/>
					<path class="st0" d="M399.63,203.83c0.04-1.18,0.12-1.26,0.23-1.93l-0.63-0.08C399.37,202.49,399.52,203.16,399.63,203.83z"/>
					<path class="st0" d="M398.15,191.3c-0.21-0.41-1.43-6.13-0.56-0.72C397.82,190.99,398.53,195.27,398.15,191.3z"/>
					<polygon class="st0" points="382.7,127.98 383.19,128.97 384.04,128.39 					"/>
					<path class="st0" d="M339.67,92.42c4.43,2.49,1.38-0.05,5.31,2.34c1.17,0.34-3.21-1.97-2.03-1.58
						C340.09,92,338.68,91.22,339.67,92.42z"/>
					<path class="st0" d="M342.95,93.19c0.46,0.18,0.95,0.38,1.46,0.59C343.59,93.42,343.2,93.26,342.95,93.19z"/>
					<path class="st0" d="M366.65,330.42c1.13,0.05,2.27,0.06,3.4,0.05c-0.74-0.07-1.47-0.12-2.21-0.21L366.65,330.42z"/>
					<path class="st0" d="M373.08,329.26l0.86,0.56l1.96-0.8C375.14,329.13,373.67,329.34,373.08,329.26z"/>
					<path class="st0" d="M154.41,113.28l0.07-0.28c-0.48,0.22-1.08,0.69-2.15,1.78l1.01-0.78L154.41,113.28z"/>
					<path class="st0" d="M126.68,147.39l0.42-0.64c-0.42,0.3-0.85,0.6-1.24,0.91L126.68,147.39z"/>
					<path class="st0" d="M111.28,181.11c0.27-0.71,0.53-1.49,0.79-2.27c0.29-0.77,0.58-1.54,0.88-2.24
						C111.75,179.67,110.48,181.25,111.28,181.11z"/>
				</g>
			</g>
		</g>
	</g>
</g>
</svg>
