<?xml version="1.0" encoding="utf-8"?>
<!-- Generator: Adobe Illustrator 24.2.1, SVG Export Plug-In . SVG Version: 6.00 Build 0)  -->
<svg version="1.1" id="Layer_1" xmlns="http://www.w3.org/2000/svg" xmlns:xlink="http://www.w3.org/1999/xlink" x="0px" y="0px"
	 viewBox="0 0 500 500" style="enable-background:new 0 0 500 500;" xml:space="preserve">
<style type="text/css">
	.st0{fill:#F0484A;}
</style>
<g>
	<g>
		<g>
			<g>
				<g>
					<path class="st0" d="M396.71,63.91c0.78-0.11,0.42-0.47,0.53-0.56C395.97,63.68,396.76,64.01,396.71,63.91z"/>
					<polygon class="st0" points="384.24,67.33 384.42,67.12 382.65,67.93 					"/>
					<path class="st0" d="M372.48,70.05c1.27,0.39,4.22-1.15,6.37-1.4l0.38,0.08l0.82-0.77C377.52,68.63,374.31,69.78,372.48,70.05z
						"/>
					<path class="st0" d="M365.85,70.21c0.46,0.16-1.29,0.6,1.48-0.32c-0.15,0.01-0.19,0-0.28,0
						C366.79,69.98,366.44,70.07,365.85,70.21z"/>
					<path class="st0" d="M367.04,69.9C368.27,69.54,366.17,69.9,367.04,69.9L367.04,69.9z"/>
					<path class="st0" d="M361.4,71.68l1.55-0.72c-0.38-0.06-1.84,0.33-1.33,0.06C359.99,71.64,360.38,71.7,361.4,71.68z"/>
					<path class="st0" d="M360.02,72.63l0.81-0.35C360.66,72.26,360.43,72.3,360.02,72.63z"/>
					<path class="st0" d="M362.54,71.54l-1.71,0.74c0.27,0.04,0.36,0.26,0.79-0.32C361.54,72.21,361.83,71.91,362.54,71.54z"/>
					<path class="st0" d="M363.58,71.35c0.95-0.12,2.15-0.36,0.59,0.35C367.24,70.74,366.65,70.37,363.58,71.35z"/>
					<path class="st0" d="M372.07,70.92l1.26-0.11l0.99-0.5C373.83,70.56,371.94,70.72,372.07,70.92z"/>
					<path class="st0" d="M351.28,74.57c-0.05,0.18,0.67,0.2,0.85,0.34l1.12-0.57C352.62,74.45,351.44,74.75,351.28,74.57z"/>
					<path class="st0" d="M352.14,74.91c-0.56,0.29-1.12,0.56-1.67,0.86C352.04,75.24,352.29,75.04,352.14,74.91z"/>
					<path class="st0" d="M359.97,73.48l2.76-1.39c-1.11,0.53-2.22,1.02-3.32,1.58L359.97,73.48z"/>
					<polygon class="st0" points="344.58,77.05 345.44,76.33 343.87,77.52 					"/>
					<path class="st0" d="M340.2,78.9c0.61-0.58-1.19-0.03-0.49-0.52c-1.17,0.56-2.09,1.22-2.9,1.83
						C337.72,79.66,338.78,79.26,340.2,78.9z"/>
					<path class="st0" d="M335.44,81.22c0.45-0.29,0.89-0.63,1.38-1C336.33,80.51,335.87,80.83,335.44,81.22z"/>
					<path class="st0" d="M347.46,76.8c-0.17-0.03-0.52-0.17-1.53,0.11l0.84,0.14C346.98,76.97,347.22,76.88,347.46,76.8z"/>
					<path class="st0" d="M346.8,77.05l-0.03,0c-0.75,0.28-1.26,0.47-1.49,0.55C345.47,77.53,345.92,77.35,346.8,77.05z"/>
					<path class="st0" d="M347.63,76.74c-0.06,0.02-0.11,0.04-0.17,0.06C347.54,76.81,347.58,76.81,347.63,76.74z"/>
					<path class="st0" d="M355.22,74.59c-0.96,0.58-3.02,1.56-0.83,1.19C355.04,75.25,353.78,75.46,355.22,74.59z"/>
					<path class="st0" d="M348.67,76.92l1.89-0.59c-0.07-0.09-0.46-0.12,0-0.42L348.67,76.92z"/>
					<polygon class="st0" points="347.81,77.38 348.67,76.92 347.97,77.14 					"/>
					<path class="st0" d="M338.71,80.18c-0.72,0.5-1.57,0.9-2.51,1.38c1.06-0.41,2.15-0.84,3.18-1.27
						C339.46,80.1,339.82,79.69,338.71,80.18z"/>
					<path class="st0" d="M342.63,78.64c-0.05,0.03-0.12,0.07-0.17,0.09C342.59,78.73,342.68,78.7,342.63,78.64z"/>
					<path class="st0" d="M326.86,86.21c0.06,0,0.12-0.01,0.18-0.01c0-0.03,0-0.05,0-0.08L326.86,86.21z"/>
					<path class="st0" d="M339.58,80.28c0.81-0.26,1.24-0.56,1.64-0.87c-0.57,0.29-1.18,0.58-1.84,0.87
						C339.33,80.37,339.34,80.41,339.58,80.28z"/>
					<path class="st0" d="M332.88,82.63c0.44-0.11,0.93-0.25,1.44-0.42C333.87,82.28,332.97,82.46,332.88,82.63z"/>
					<path class="st0" d="M342.16,78.73c0.04-0.02,0.07-0.04,0.11-0.06C341.97,78.69,342.02,78.72,342.16,78.73z"/>
					<path class="st0" d="M342.16,78.73c-0.39,0.21-0.66,0.46-0.94,0.68c0.46-0.24,0.89-0.47,1.25-0.68
						C342.36,78.75,342.24,78.74,342.16,78.73z"/>
					<path class="st0" d="M325.44,90.11c-0.08-0.43,1.7-1.8,3.58-2.34c1.51-1.16-0.16-1.73-1.97-1.58c0.03,0.18,0.1,0.32-1.5,1.46
						c0.71-0.14,4.05-1.62,2.77-0.52c-2.17,1.41-1.92,0.88-3.13,1.3c1.16-0.1-2.48,2.26-1.63,2.61l1.81-1.34
						C325.47,89.77,324.85,90.34,325.44,90.11z"/>
					<path class="st0" d="M330.37,84.5l0.7-0.41c-0.85,0.36-1.52,0.49-2.74,0.79c-1.1,0.81-1.27,1.08-1.29,1.24
						c1.17-0.63,2.35-1.23,3.55-1.79L330.37,84.5z"/>
					<path class="st0" d="M334.32,82.5c-0.39,0.64-2.04,1.66-0.78,1.56c2.12-1.03,1.34-1.02,2.54-1.79
						c-3.41,1.7,0.89-0.68-1.71,0.26c0.65-0.38,1.25-0.69,1.82-0.97c-0.65,0.24-1.27,0.46-1.88,0.65c0.04-0.01,0.06-0.01,0.09-0.01
						l0.02-0.01l0,0.01c0.17-0.02,0.24-0.01,0.05,0.04c-0.01,0.01-0.05,0.03-0.07,0.04C334.41,82.34,334.37,82.42,334.32,82.5
						c-1.04,0.38-0.21-0.03,0.09-0.22c0-0.02,0.02-0.06,0.01-0.08c0,0-0.01,0-0.02,0c-1.13,0.59-2.23,1.25-3.34,1.89
						C331.83,83.8,332.71,83.28,334.32,82.5z"/>
					<path class="st0" d="M352.78,77.31c-0.12,0-0.13-0.03-0.15-0.06C352.42,77.38,352.35,77.45,352.78,77.31z"/>
					<path class="st0" d="M351.23,77.58c0.24-0.15,0.4-0.39,1.26-0.64c0.78-0.13,0.06,0.2,0.15,0.32c0.47-0.28,1.68-0.9,0.01-0.55
						l-0.23,0.14c-1.49,0.34-3.51,0.55-3.28,0.39C349.69,77.45,350.15,77.57,351.23,77.58z"/>
					<path class="st0" d="M342.68,79.96l-2.83,1.44l1.62-0.29l-0.16-0.17C343,80.3,342.54,80.2,342.68,79.96z"/>
					<polygon class="st0" points="326.43,86.19 326.59,85.59 325.27,87.03 					"/>
					<polygon class="st0" points="322.84,88.27 322.77,87.85 321.94,88.6 					"/>
					<path class="st0" d="M194.13,272.52l-0.1,0.92C194.09,273.01,194.12,272.73,194.13,272.52z"/>
					<path class="st0" d="M195.69,266.09l-0.15-0.21C195.56,266.2,195.62,266.35,195.69,266.09z"/>
					<path class="st0" d="M247.43,155.04c-1.15,0.8-2.57,1.6-2.12,1.76l0.6-0.04C246.46,155.98,246.96,155.45,247.43,155.04z"/>
					<path class="st0" d="M212.28,214.21c0.09-0.1,0.19-0.2,0.29-0.3c0.01-0.36,0.02-0.7,0.02-1
						C212.5,213.31,212.39,213.75,212.28,214.21z"/>
					<path class="st0" d="M213.48,215.84l-1.02,1.46C212.72,216.99,213.06,216.52,213.48,215.84z"/>
					<path class="st0" d="M184.77,307.62c-0.39-0.2-0.81-0.43-1.26-0.69C185.62,309.16,184.64,307.8,184.77,307.62z"/>
					<path class="st0" d="M289.01,113.52c-0.99,0.64-1.73,1.21-2.36,1.73C287.87,114.5,288.96,114.03,289.01,113.52z"/>
					<path class="st0" d="M190.26,268.91c-0.06,0.57-0.03,0.83,0.07,0.84C190.39,269.15,190.39,268.81,190.26,268.91z"/>
					<path class="st0" d="M284.14,117.49c0.18-0.1,0.35-0.22,0.53-0.34c0.59-0.62,1.18-1.24,1.98-1.91
						C285.75,115.8,284.79,116.51,284.14,117.49z"/>
					<path class="st0" d="M143.11,179.67c0.02-0.1,0.03-0.21,0.05-0.3C143.1,179.34,143.1,179.47,143.11,179.67z"/>
					<path class="st0" d="M148.93,141.27c0,0.38-0.03,1-0.06,1.58C148.92,142.57,148.94,142.09,148.93,141.27z"/>
					<path class="st0" d="M308.76,97.2C309.46,96.67,308.84,97.08,308.76,97.2L308.76,97.2z"/>
					<path class="st0" d="M313.22,96.16c-0.12,0.15-0.21,0.28-0.17,0.37C313.06,96.41,313.12,96.28,313.22,96.16z"/>
					<path class="st0" d="M279.58,125.32c-0.02,0.02-0.03,0.03-0.06,0.05C279.77,125.26,279.73,125.28,279.58,125.32z"/>
					<path class="st0" d="M309.95,96.6c-0.3,0.15-0.63,0.33-0.99,0.55C309.13,97.06,309.43,96.9,309.95,96.6z"/>
					<path class="st0" d="M309.69,96.53c0.26-0.16,0.46-0.29,0.65-0.41C310.38,96,310.28,96.02,309.69,96.53z"/>
					<path class="st0" d="M307.78,97.94c0.4-0.31,0.79-0.56,1.18-0.79c-0.16,0.08-0.23,0.1-0.2,0.06
						C308.55,97.36,308.26,97.57,307.78,97.94z"/>
					<path class="st0" d="M153.24,250.14c0-0.06-0.01-0.13-0.01-0.19C152.81,249.16,152.95,249.52,153.24,250.14z"/>
					<path class="st0" d="M237.2,175.63c0.02-0.04,0.03-0.06,0.04-0.09c-0.03,0.03-0.06,0.07-0.09,0.09L237.2,175.63z"/>
					<path class="st0" d="M235.72,178.36c0.3-1.39,0.76-1.98,1.43-2.73l-1.61,0.12L235.72,178.36z"/>
					<path class="st0" d="M191.12,288.09l0.73-2.07c0.22,2.69-0.3,4.5,0.56,2.6c-0.62-0.26-0.4-2.35,0.01-4.41
						c0.38-2.06,0.75-4.12,0.12-4.41l0.56-1.34c-0.09,0.4-0.03,0.48-0.12,0.87c0.59-1.29,0.45-1.85,0.27-2.51
						c-0.19-0.67-0.39-1.45,0.13-3.17c0.39-1.19,0.78-1.99,0.74-1.13l0.32-2.78c0.21-0.78,0.4-0.53,0.18,0.24l0.88-4.15l0.03,0.04
						c-0.05-0.64,0-2.04,0.05-2.72c0.48-0.99-0.01,0.56,0.23,0.34l0.31-2.35c0.59-0.83,0.4,1.14-0.08,2.69
						c1.89-1.76,0.19-1.97,2.21-6.31l-0.42,2.18c1.13-1.16,1.28-2.91,2.52-5.14c-0.21,0.24-0.88,1.35-1.44,2.08
						c-0.53,0.74-0.97,1.1-0.79-0.18c0.31-0.66,0.65-1.54,0.8-2.93c0.47,0.13,0.76-1.18,1.24-2.79l0.57,0.3
						c0.37-1.78,0.02-1.75,0.07-2.85c0.65-1.91,1.32-2.13,1.86-2.45c1.18-3.01-1.5,1.85-0.33-1.8c1.15-2.45,1.49-4.33,2.28-7.48
						c0.9-1.67,0.24,0.45,0.66-0.12l0.14-1.74c0.16-0.38,0.26-0.2,0.31-0.1c0.34-1.38-0.55-0.34,0.11-2.47
						c-0.42-0.82,2.59-3.86,3.01-6.66c0.44-0.55,0.23,0.45,0.54,0.36c1.04-3.65,0.95-3.1,1.56-6.23c0.47-0.75,0.99-1.48,1.5-2.21
						c-1.28,1.54-0.72-0.93-0.19-3.09c-0.51,0.52-0.95,0.97-1.21,1.28l1.21-3.29c0.28-0.33,0.32,0.08,0.31,0.71
						c0.05-0.24,0.1-0.46,0.14-0.64c0.76-1.02,0.8-0.27,0.74,0.69c-0.3,0.32-0.61,0.64-0.9,0.95c-0.02,0.94,0.01,1.85,0.43,1.85
						c0.03-0.23,0.16-0.65,0.34-1.1c0,0.25,0.02,0.42,0.12,0.35c0.11-0.08,0.14-0.46,0.24-1.04l0.98-0.4l-0.17-0.3
						c0.8-1.29,1.56-2.59,2.4-3.85c0.44-1.59,0.75-3.13,1.23-4.87c0.5-1.72,1.06-3.69,2.26-5.98c-0.19,1.37,0.61,0.66,1.11,1.02
						c-1.31,0.88-1.67,3.63-3.04,5.91c0.71-1.2,0.83-0.79,0.75-0.43c0.57-1.49,1.12-2.99,1.71-4.47c0.39,0.34,0.84-0.69,1.64-1.66
						c-1.34,0.32,1.19-3.39,1.89-5.23c0.35,0.07,0.41,0.64-0.84,2.64c1.97-1.85,0.63-3.54,2.54-5.37c-0.3,0.49-0.51,0.73-0.48,1.01
						c0.46-1.3,2.41-3.96,2.25-3.15l-0.3,0.49c1.08-1.58,2.59-4.07,3.87-6.22c1.31-2.13,2.29-4,2.1-4.48
						c0.11,0.03,0.56,0.99,0.58,1.28c0.51-2.4,0.94-4.88,1.56-7.26c0.24,0.91,3.02,0.07,1.48,2.86c0.62-0.67,1.39-1.5,2.31-3.2
						c-0.45,0.44-1.77,0.63-1.32-0.1c2.04-1.4,1.31-1.05,3.57-2.94c-0.68,0.65-0.98-0.87-0.07-2.03c0,0.29,0.97,0.59,0.75,1.09
						c0.42-1.21,0.91-2.37,1.37-3.57c-0.41,0.84,0.65,0.71,1.41,0.27c-0.41,0.16,1.98-2.46,2.5-3.29l-1.17,1.05
						c2.69-3.13,1.31-4.2,4.02-7.31c-0.15,0.53,0.29,1.86,1.75,0.37c0.18-1.1,0.67-5.03,2.81-8.05l0.72-0.3l1.62-2.33
						c-0.56,1.88-2.49,6.72-3.68,9.19c1.22-0.99,0.58-0.07,2.08-1.83c0.77-0.41-0.48,1.26-0.91,1.78l3.72-3.88
						c-0.66-0.27,2.28-3.49,1.74-3.71c-1.16,1.59-2.31,3.18-3.43,4.79c-0.66-0.27,0.83-3.81,3.56-6.53
						c0.86-0.53,0.38,1.35,0.59,1.44c0.16-0.52,2.16-2.95,2.53-3.08l-0.86,1.42c1.65-1.36,1.75-3.13,4-4.51
						c0.65-0.6,2.47-1.26,2.29-1.65c-1.55,0.48-3.45-0.98-3.18-2.07c0.25-0.19,3.82-2.79,4.81-3.22c1.46-0.59-0.56,2.56,0.69,2.05
						c-0.09-0.17,0.32-0.89,0.51-1.18c0.77-0.54,0.12,0.67,1.51-0.79c-0.24-0.73,3-2.81,0.28-1.08c1.29-1.51,1.6-1.36,3.27-2.98
						c-0.84,0.19,0.48-2.53,1.8-4.02c0.03,0.21,0.51,0.07,0.74,0c3.02-2.71,4.84-3.96,7.66-6.48c0.37-0.11,1.86-1.17,1.48-0.44
						c0.33-0.45,0.55-0.95,1.41-1.74c2.08-1.05-1.88,1.79-0.13,1.18c-0.16-0.4,1.9-2.4,2.99-3.67c-0.79-0.13-2.97,2.43-4.05,3.72
						c-0.57-0.62,1.01-3.22,3.77-6.1c2.26-2.21,1.39-0.47,1.73-0.92c4.63-3.69,2.94-4.38,7.18-6.99c1.87-0.78,0.73,0.79,1.31,0.82
						c-1.89,1.75-3.3,2.18-4.63,3.31l1.82-1.16c-0.53,0.64-1.76,1.84-2.58,2.31c0.78-0.33,2.72-1.9,4.97-3.66
						c2.26-1.76,4.83-3.7,6.8-4.86c0.54-0.63,1.57-1.59,0.91-1.38l-1.12,0.91c-1.33,0.43,1.85-2.08,0.25-1.18
						c1.4-1.38,2.91-3.04,5.33-4.37l0.77,0.23c-0.15-0.12-1.7,0.69-2.22,1.28c0.79-0.89,3.94-1.65,4.56-2.99
						c-0.62,0.22-1.23,0.45-1.84,0.69c1.46-1.34,3.18-3.19,5.38-4.28c-1.27,0.06-0.44,0.35-2.31,0.65c1.73-0.08-5.31,3.34-2.77,2.81
						c-1.94,0.29-2.77,1.4-5.08,2.16c0.18,0.13,0.9-0.16-0.84,0.94c-0.04,0.1-0.18,0.29-0.26,0.41c-0.05,0.03-0.07,0.04-0.12,0.07
						c0.04-0.02,0.07-0.03,0.11-0.05c-0.05,0.08-0.06,0.09,0.04-0.02c0.45-0.21,0.83-0.35,1.03-0.35c-0.57,0.97-3.22,2.84-3.95,3.7
						c-1.03,0.64,0.27-0.49-0.39-0.27l-1.1,1.27c-0.4-0.26-3.02,1.36-0.9-0.58l-2.06,1.55c-1.35,0.73-3.06,1.95-3.94,2.91
						c-1.02,0.68-2.06,2.33-1.47,1.38l-2.92,2.79l-0.1-0.06c-3.08,2.52-5.72,5.88-9.63,8.3c-0.92,0.97-1.84,2-3.58,3.41l-0.58,0.01
						c-1.17,1.25-4.05,3.21-4.31,4.01c-2.07,0.5-6.2,5.57-8.47,7.57l0.28,0.44c-1.5,1.44-2.81,2.95-4.46,4.94l0.43,0.2
						c-1.29,1.84-4.21,3.87-6.57,6.49c0.04-0.29,0.68-0.91,1.19-1.3c-3.63,2.38-5.45,7.02-8.5,9.41c-0.5,0.83-0.98,1.31-1.5,1.75
						c0.06-0.07,0.1-0.13,0.14-0.19c-0.06,0.07-0.16,0.18-0.26,0.29c-0.33,0.27-0.68,0.54-1.04,0.85c0.34-0.24,0.65-0.47,0.9-0.69
						c-0.47,0.56-1.14,1.46-1.75,2.36l-0.67,0.05c-0.05,0.07-0.1,0.13-0.15,0.2c-0.81,0.72-0.36,0.82,0.27,0.6
						c-0.28,0.48-0.52,0.93-0.67,1.31c-1.14,0.19-1.57,2.4-2.96,2.81c-0.14,0.83-3.19,4.47-2.81,5.48c-0.11-0.04-0.34,0.19,0-0.29
						c-0.8,0.92-1.59,1.84-2.04,2.85l-0.8,0.05l-0.9,2.62c-1.25,1.08-1.83,1.49-1.26-0.07c-1.67,3.55-1.57,2.73-2.84,5.84
						l-0.24-0.36c-0.65,0.98-1.26,2.82-1.93,3.22c-2.11,1.75-7.09,10.86-10.96,16.4c1.67-0.56-2.03,2.45-1.33,3.15
						c-0.43,0.21-1,0.97-0.7-0.11c-1.37,3.17-2.81,4.37-3.25,6.82c-0.43,0.22-0.01-0.84-0.32-0.6c-0.08,0.27-0.3,1.08-0.61,1.32
						c-0.31,0.24,0.03-0.55,0.18-1.09c-1.57,3.16-0.91,3.88-0.32,4.46c-1.11,1.43-1.45,2.26-1.54,3.64c-0.5,0.44-1.2,1.26-0.34-0.75
						c-0.28,0.55-1.21,2.18-1.94,3.76c-0.71,1.58-1.29,3.08-1.02,3.27c-0.3,0.29-0.73,1.55-0.8,1.87c-1.12,2.51-1.35,2.68-2.27,5.22
						l0.37-0.66c0.32,1.28-0.67,2.15-1.39,4.2l-0.05-0.09c-1.18,2.22-1.32,2.74-1.46,3.25c-0.14,0.51-0.31,1-1.43,3.22l0.54-0.09
						c0.82,0.78-2.04,3.9-2.63,6.72l0.61-0.88c-0.22,1.56-2.71,3.69-3.31,5.16c-0.19,0.3,0.03-0.56,0.11-1.04
						c-1.82,3.75,0.44,0.7-0.35,3.67c-0.49,0.44-0.6-0.95-1.29,1c-0.63,0.89-0.63,6.06-2,8.6c0.42-0.53,0.83-1.05,0.64,0.37
						c-0.24,1.06-0.9,2.41-1.39,3.78c-0.49,1.37-0.88,2.74-0.71,3.8c-0.13,0.25-0.22,0.34-0.29,0.34c-0.16,1.68-0.95,5.34-0.66,6.43
						c-1.9,1.18-1.28,10.29-2.68,9.99l-0.74,5.08l-0.13-0.16c-0.31,1.61-0.42,2.72-0.43,3.57c0.04,0.64,0.19,0.99,0.3,1.52
						c-0.16,0.47-0.25-0.01-0.32-0.08c-0.33,1.43-0.47,2.05-0.5,2.91c-0.02,0.43,0,0.91,0.02,1.57c0.02,0.35,0.03,0.73,0.05,1.16
						c0.04,0.33-0.06,0.2-0.13,0.2c-0.08-0.02-0.16-0.04-0.26-0.07l-0.42-1.2c-0.15,0.06-0.98-1.1-1.68-2.1
						c-0.16-0.24-0.33-0.5-0.51-0.76l-0.27-0.38l-0.56-0.69c-0.77-0.91-1.58-1.82-2.38-2.65c0.07,0,0.21,0.02,0.48,0.26
						c-0.9-0.93-1.75-2.07-2.57-3.25c-0.79-1.19-1.48-2.48-2.17-3.62c-0.34-0.58-0.68-1.13-1.01-1.63
						c-0.31-0.52-0.61-0.99-0.92-1.41c-0.61-0.82-1.22-1.39-1.86-1.55l-1.1-1.34l-1.04-1.38c2.08,3.94-1-0.18-0.36,1.57
						c-0.96-1.48-1.77-4.23-0.62-2.39l0.09,0.34c0.6,0.11-0.01-1.13-0.69-2.43c-0.67-1.3-1.34-2.7-1.04-2.79
						c-4.05-7.74-6.73-15.86-9.17-23.63l-0.4,1.12c-0.29-0.91-0.58-1.81-0.83-2.74c-0.05-0.77,0.26-1.13,0.81,0.83
						c0.09-1.15-1.29-3.17-1.47-3.19c-0.84-3.91,1.26,1.26,0.93,0.08l-0.52-1.57l0.02,0.38c-0.67-1.2-1-1.24-1.58-3.62
						c-0.25-1.54,0.24-0.88,0.11-1.48c0.05-0.01,0.02-0.21-0.21-0.91c-0.3-1.16-0.5-2.34-0.75-3.51l-0.25,1.53
						c-0.63-1.49-0.72-3.31-0.99-1.55c0.12-0.65-0.01-1.8-0.21-3.19c-0.18-1.39-0.47-3.01-0.78-4.61c-0.55-3.19-1.14-6.27-1.07-7.03
						c-0.7-2.16-1.05-4.35-1.27-7.09c-0.04,0.69-0.64,1.17-0.83-1.19c0.71,0.36,0.74-0.73,0.68-2.16c-0.04-1.43-0.13-3.21,0.26-4.2
						c-0.24,0.88-0.44-0.79-0.62-2.34c-0.17-1.55-0.37-2.98-0.74-1.61c-0.02-1.98,0.49-0.15,0.71-1.67
						c-0.44-2.32-0.42-4.92-0.43-7.64c0.06-2.73,0.12-5.59,0.03-8.5c-0.18-0.09-0.44,0.89-0.71-0.36l0.85-3.07
						c-0.08-1.15-1.01-1.06-0.39-3.15c-0.15,0.3-0.37,0.74-0.43-0.03c0.91-11.37-0.08-23.33,2.22-34.83c-0.43,1.55-0.4,0.5-0.35-0.7
						c-0.13,0.77-0.43-0.04-0.68,0.1l0.96-4.81c-0.61-0.92,0.28-5.2-0.32-5.75l0.02,1.54c-0.61-2.09-1.84,2.75-2.77,2.4
						c0.7,2.34-1.63,5.96-0.63,9.79c-0.24,0.82-0.27-0.73-0.51-0.29c0.35,0.98,0.37,2.13,0.08,4.26l-0.09-0.25
						c-0.22,6-0.74,8.55-1.26,15.3l0.49-0.48c-0.11,1.45-0.26,1.75-0.4,2.43c0.67,1.69,0.16-4.08,0.91-2.53
						c-0.51,0.95-0.59,3.5-0.68,5.98c-0.06,2.48-0.14,4.89-0.7,5.53c-0.02,2.24,0.55-0.65,0.53,1.59l-0.3,0.59l0.38,0.57
						c-0.07,1.47-0.44,2.21-0.69,2.26c0.03-0.36-0.07-1.01-0.09-1.39c-0.38,1.9,0.14,5.37,0.03,6.03l0.16-2.15
						c0.29,6.1,0.17,13.59,1.19,19.46l0.19-0.46c0.7,4.47,0.03,3.62,0.63,8.54l-0.07-0.17c0.32,0.96,0.59,2.27,0.71,3.62
						c-0.4-1.22-0.25,2.4-0.71,0.8c1.02,4.81,0.65,2.37,1.89,5.46l-0.27,0.79c0.47,1.04,0.67,1.11,1.17,3.53
						c-0.64-1.95-0.3,1.65-1.09-0.53c0.01,2.63,0.53,4.51,1.01,6.03c0.46,1.52,0.78,2.7,0.46,3.99c0.78,1.06,0.63-0.07,0.44-1.31
						c-0.2-1.24-0.52-2.59-0.28-1.96c0.13-1.16,1.1,1.79,1.36,3.39c0.17,0.81,0,1.56-0.09,2.63c-0.09,1.07-0.13,2.45,0.43,4.47
						c-0.1-0.4-0.18-0.41-0.28-0.82c0.14,1.58,1.1,2.89,1.19,4.85c0.9,0.87,0.67,2.41,1.52,2.48c-0.41-1.21-0.86-2.41-1.23-3.63
						c0.36,1.03,0.96,1.95,1.49,3.07c0.56,1.11,1.01,2.43,1.37,4.19c-0.24-0.21-0.78-1.16-1.09-1.83c0.06,1.08,0.76,1.87,0.87,2.98
						c-0.42-0.03-0.85-1.11-1.28-2.47c-0.42-1.36-0.89-2.96-1.51-4c0,1.18,1.8,4.08,0.65,3.2c1.48,1.31,1.14,3.99,2.81,6.42
						l-0.51-0.02c0.2,0.41,0.74,1.2,1.02,1.98l-1.1-1.2c1.31,1.98,1.09,4.34,2.19,6.3c-1.69-4.32,0.15-1.18-0.22-3.13
						c1.27,2.56,1.35,3.4,1.35,4.39c0.01,0.49,0.01,1,0.18,1.76c0.17,0.76,0.49,1.77,1.23,3.19c-0.45-0.75-1.06-3.1-0.33-1.94
						c0.4,1.15,0.92,2.69,1.01,3.48c1.87,3.82,0.17-0.8,1.19,0.72c0.07,1.57,1.11,1.78,2.12,3.34l-0.42,0.23
						c1.95,4.43,1.41,0.7,3.2,4.66l-1.49-1.27l1.27,1.89l-0.71-0.14c1.58,1.95,1.82,2.69,3.01,4.81c-0.01-0.66,0.91-0.19,2.06,1.61
						c0.55,1.38-0.85-0.42,0.89,2.07c-0.65-0.39-1.37-0.82-1.7-2.18c-0.2-0.03-0.62-0.41-0.82-0.45c0.28,0.76,0.79,1.61,1.31,2.39
						c0.56,0.75,1.09,1.45,1.42,1.89c-0.23-0.36-0.5-0.79-0.59-1.05l3.06,3.24c0.26,0.67-0.18,0.31-0.61-0.05
						c0.54,0.71,1.13,1.05,1.95,2.07c-0.52-0.03-0.79,0.28-2.08-1.1l2.92,3.09c0.03,0.33,0.96,2.01,0.51,1.67
						c0.34,0.48,0.77,0.97,1.27,1.47c0.25,0.24,0.51,0.5,0.78,0.75c0.44,0.45,0.89,0.91,1.35,1.38c1.83,1.79,3.63,3.38,5.39,5.49
						c0.17,0.07,0.51,0.32,1.21,0.99c0.41,0.46,0.81,0.91,1.21,1.36l0.61,0.7l0.15,0.18c0.05,0.05,0.03-0.09,0.05-0.12l0.06-0.36
						c0.17-0.99,0.34-1.97,0.52-2.98c0.33-2.08,0.64-4.54,0.73-7.33c0.34-0.79,0.69-1.68,1.05-2.65c0.21-2.23-0.15-1.16-0.46-0.58
						c-0.16,0.3-0.3,0.48-0.37,0.19c-0.04-0.15-0.05-0.41-0.04-0.83c0.01-0.21,0.02-0.46,0.03-0.76c0.02-0.21,0.04-0.44,0.06-0.72
						c0.27-3.09,0.78-1.05,1.14-2.09c-0.11-1.56-0.39-4.33,0.62-7.04C191.43,286.5,191.21,287.21,191.12,288.09z M198.12,256.52
						c-0.07,0.63-0.1,1.92-0.5,2.29C197.28,257.96,197.68,257.5,198.12,256.52z M215.2,210.31c-0.06,0.49-0.45,1.11-0.97,1.76
						C214.46,211.52,214.76,210.92,215.2,210.31z M301.33,103.29c-0.02,0.02-0.03,0.04-0.04,0.06
						C300.05,104.09,300.5,103.83,301.33,103.29z M303.79,101.64c0.2-0.23,0.14-0.27,0-0.25c-0.09,0.22-0.61,0.63-1.23,1.07
						C302.81,102.44,303.15,102.26,303.79,101.64z M153.9,240.37l0.02,0.58C153.47,239.75,153.68,240.07,153.9,240.37z"/>
					<path class="st0" d="M213.35,215.63c-0.15,0.12-0.25,0.13-0.35,0.13C212.96,216.02,213.05,216.06,213.35,215.63z"/>
					<path class="st0" d="M184.99,307.73l-0.12-0.13c-0.06-0.02-0.09-0.01-0.1,0.02L184.99,307.73z"/>
					<path class="st0" d="M272.47,134.74c-0.48,0.37-0.78,0.54-1,0.63C271.53,135.48,271.79,135.36,272.47,134.74z"/>
					<path class="st0" d="M316.15,91.89l-1.52,1.15c0.76-0.53,1.09-0.62,1.52-0.81C316.05,92.16,315.65,92.22,316.15,91.89z"/>
					<path class="st0" d="M331.89,86.31c0.22-0.18,0.52-0.27,0.73-0.44l-0.17-0.17C331.41,86.24,330.77,86.76,331.89,86.31z"/>
					<path class="st0" d="M318.5,92.29c0.34,0.26,1.26-0.5,2.36-1.24c-0.07,0.04-0.13,0.08-0.2,0.12
						C320.7,90.49,319.58,91.37,318.5,92.29z"/>
					<path class="st0" d="M321.12,90.89c0.34-0.23,0.69-0.45,1.04-0.64C322.17,89.97,321.71,90.46,321.12,90.89z"/>
					<path class="st0" d="M306.63,99.17c0.57-0.29,0.01-0.65,0.4-0.73C307.28,97.6,304.01,101.44,306.63,99.17z"/>
					<polygon class="st0" points="320.11,92.85 319.45,92.68 319.04,93.42 					"/>
					<path class="st0" d="M311.26,98.31c0.6-0.37,1.2-0.74,1.8-1.09c-0.07-0.05,0.12-0.24,0.37-0.46
						C312.35,97.47,311.14,98.21,311.26,98.31z"/>
					<path class="st0" d="M313.43,96.76c0.56-0.37,1.08-0.75,1.35-1.03C314.48,95.94,313.85,96.4,313.43,96.76z"/>
					<polygon class="st0" points="317.77,94.52 317.19,94.77 315.93,95.56 					"/>
					<path class="st0" d="M293.44,112.21l-1.65,1.61c-0.06,0.28,0.47-0.05,1.08-0.66C293.21,112.71,293.81,112.1,293.44,112.21z"/>
					<path class="st0" d="M299.63,108.81c-0.54,0.31-0.65,0.25-1.02,0.35l0.34,0.52L299.63,108.81z"/>
					<path class="st0" d="M294.61,113.2c-0.06,0.28-2.19,2.53-0.02,0.62C294.65,113.54,296.3,111.94,294.61,113.2z"/>
					<polygon class="st0" points="268.76,136.01 269.16,135.6 268.39,134.94 					"/>
					<path class="st0" d="M250.08,159.97c1.91-1.9-0.08-0.9,1.73-2.56c0.22-0.64-1.47,1.36-1.21,0.73
						C249.74,159.55,249.08,160.11,250.08,159.97z"/>
					<path class="st0" d="M250.59,158.14c0.14-0.23,0.28-0.47,0.41-0.74C250.75,157.81,250.65,158.01,250.59,158.14z"/>
					<polygon class="st0" points="149.88,134.92 150.2,133.19 149.79,134.3 					"/>
					<path class="st0" d="M149.33,131.53l0.67-0.37l-0.52-1.08C149.49,130.47,149.5,131.24,149.33,131.53z"/>
					<path class="st0" d="M200.81,252.32l-0.11-0.17c-0.24,0.2-0.38,0.59-0.65,1.35L200.81,252.32z"/>
					<polygon class="st0" points="194.24,274.78 194.35,274.39 193.6,275 					"/>
					<path class="st0" d="M191.41,294.22c0.15-0.79,0.17-1.73,0.32-2.52C191.56,293.43,190.65,294.32,191.41,294.22z"/>
				</g>
			</g>
		</g>
	</g>
</g>
</svg>
