<?xml version="1.0" encoding="utf-8"?>
<!-- Generator: Adobe Illustrator 24.2.1, SVG Export Plug-In . SVG Version: 6.00 Build 0)  -->
<svg version="1.1" id="Layer_1" xmlns="http://www.w3.org/2000/svg" xmlns:xlink="http://www.w3.org/1999/xlink" x="0px" y="0px"
	 viewBox="0 0 500 500" style="enable-background:new 0 0 500 500;" xml:space="preserve">
<g>
	<g>
		<g>
			<g>
				<g>
					<path d="M467.59,213.54c0.65,0.11,0.47-0.33,0.58-0.4C467.05,213.12,467.6,213.65,467.59,213.54z"/>
					<polygon points="456.66,213.59 456.86,213.42 455.25,213.77 					"/>
					<path d="M446.52,213.43c0.49,0.35,1.4,0.29,2.42,0.2c1.02-0.07,2.16-0.21,3.06-0.07l0.29,0.17l0.83-0.56
						C450.92,213.23,448.07,213.57,446.52,213.43z"/>
					<path d="M441.03,212.09c0.35,0.26-1.17,0.3,1.28,0.02c-0.12-0.02-0.16-0.04-0.23-0.06
						C441.85,212.06,441.55,212.08,441.03,212.09z"/>
					<path d="M442.07,212.05C443.15,211.97,441.36,211.85,442.07,212.05L442.07,212.05z"/>
					<path d="M437.11,212.52l1.4-0.37c-0.31-0.14-1.57-0.07-1.11-0.23C435.95,212.19,436.27,212.32,437.11,212.52z"/>
					<path d="M435.82,213.15l0.72-0.17C436.4,212.93,436.21,212.92,435.82,213.15z"/>
					<path d="M438.07,212.64l-1.53,0.35c0.21,0.1,0.25,0.33,0.71-0.14C437.13,213.07,437.42,212.84,438.07,212.64z"/>
					<path d="M438.96,212.67c0.81,0.11,1.83,0.16,0.43,0.48C442.08,212.91,441.66,212.43,438.96,212.67z"/>
					<path d="M446.02,214.18l1.05,0.19l0.91-0.26C447.52,214.24,445.95,213.96,446.02,214.18z"/>
					<path d="M428.27,213.1c-0.07,0.16,0.53,0.33,0.66,0.51c0.34-0.11,0.68-0.2,1.02-0.3C429.39,213.26,428.37,213.31,428.27,213.1z
						"/>
					<path d="M428.93,213.61l-1.51,0.49C428.8,213.93,429.04,213.77,428.93,213.61z"/>
					<polygon points="435.64,213.96 438.14,213.21 435.15,214.01 					"/>
					<polygon points="422.33,214.02 423.15,213.52 421.68,214.32 					"/>
					<path d="M418.43,214.82c0.59-0.42-0.99-0.29-0.34-0.62c-1.05,0.28-1.91,0.71-2.67,1.11
						C416.26,215.01,417.19,214.84,418.43,214.82z"/>
					<path d="M414.13,215.95c0.41-0.18,0.83-0.4,1.29-0.63C414.97,215.48,414.54,215.67,414.13,215.95z"/>
					<path d="M424.76,214.41c-0.13-0.08-0.4-0.28-1.29-0.22l0.68,0.31C424.34,214.47,424.55,214.44,424.76,214.41z"/>
					<path d="M424.18,214.52l-0.02-0.01c-0.66,0.11-1.12,0.18-1.31,0.21C423.01,214.69,423.41,214.63,424.18,214.52z"/>
					<path d="M424.92,214.39c-0.06,0.01-0.1,0.01-0.15,0.02C424.83,214.45,424.87,214.46,424.92,214.39z"/>
					<path d="M431.53,214c-0.88,0.34-2.74,0.82-0.87,0.97C431.28,214.6,430.21,214.52,431.53,214z"/>
					<path d="M425.76,214.81l1.65-0.15c-0.05-0.11-0.37-0.23,0.06-0.41L425.76,214.81z"/>
					<polygon points="424.98,215.06 425.76,214.81 425.14,214.86 					"/>
					<path d="M417,215.72c-0.66,0.33-1.43,0.5-2.29,0.73c0.95-0.13,1.92-0.28,2.83-0.48C417.65,215.82,418,215.5,417,215.72z"/>
					<path d="M420.49,215.13c-0.05,0.02-0.11,0.04-0.15,0.05C420.44,215.2,420.52,215.2,420.49,215.13z"/>
					<path d="M406.27,218.66c0.05,0.01,0.1,0.02,0.16,0.04c0-0.03,0.01-0.05,0.01-0.08L406.27,218.66z"/>
					<path d="M417.72,216.02c0.71-0.07,1.11-0.26,1.48-0.47c-0.51,0.15-1.06,0.3-1.65,0.43C417.5,216.05,417.5,216.09,417.72,216.02
						z"/>
					<path d="M411.8,216.72c0.38,0,0.81-0.03,1.26-0.07C412.68,216.61,411.9,216.58,411.8,216.72z"/>
					<path d="M420.08,215.11c0.03-0.01,0.07-0.02,0.1-0.04C419.93,215.02,419.97,215.06,420.08,215.11z"/>
					<path d="M420.08,215.11c-0.35,0.12-0.61,0.28-0.88,0.44c0.42-0.13,0.81-0.24,1.14-0.36
						C420.25,215.17,420.15,215.14,420.08,215.11z"/>
					<path d="M404.55,222.05c0-0.41,1.66-1.34,3.32-1.34c1.43-0.71,0.1-1.69-1.45-2.01c0,0.19,0.04,0.31-1.46,1.02
						c0.6,0.01,3.63-0.5,2.4,0.2c-2.02,0.77-1.73,0.36-2.8,0.46c0.99,0.21-2.4,1.51-1.73,2.06l1.71-0.81
						C404.62,221.73,404.02,222.11,404.55,222.05z"/>
					<path d="M409.45,217.89l0.64-0.23c-0.76,0.14-1.33,0.14-2.39,0.11c-1.03,0.49-1.22,0.69-1.25,0.84l3.22-0.84L409.45,217.89z"/>
					<path d="M413.03,216.93c-0.41,0.55-1.93,1.11-0.86,1.32c1.9-0.5,1.25-0.68,2.36-1.14c-3.07,0.87,0.84-0.45-1.46-0.14
						c0.59-0.22,1.14-0.38,1.65-0.52c-0.57,0.09-1.13,0.16-1.65,0.2c0.03,0,0.05,0.01,0.08,0.01l0.01,0l0,0.01
						c0.15,0.02,0.2,0.04,0.04,0.05c-0.01,0.01-0.05,0.02-0.06,0.02C413.12,216.8,413.08,216.87,413.03,216.93
						c-0.92,0.13-0.17-0.08,0.1-0.19c0.01-0.02,0.03-0.05,0.02-0.07l-0.01,0l-3.06,1C410.76,217.55,411.58,217.34,413.03,216.93z"/>
					<path d="M429.11,216.1c-0.1-0.02-0.1-0.05-0.11-0.08C428.8,216.09,428.73,216.14,429.11,216.1z"/>
					<path d="M427.79,216.03c0.22-0.09,0.39-0.29,1.13-0.36c0.66,0.03,0.02,0.21,0.08,0.34c0.43-0.18,1.52-0.51,0.09-0.54
						l-0.21,0.09c-1.28,0.04-2.99-0.25-2.78-0.34C426.53,215.55,426.89,215.77,427.79,216.03z"/>
					<path d="M420.35,216.41c-0.86,0.22-1.7,0.5-2.55,0.74l1.39,0.09l-0.11-0.21C420.56,216.81,420.2,216.63,420.35,216.41z"/>
					<path d="M405.91,218.54l0.21-0.53c-0.44,0.34-0.87,0.69-1.3,1.05C405.19,218.88,405.55,218.7,405.91,218.54z"/>
					<polygon points="402.61,219.61 402.61,219.2 401.81,219.7 					"/>
					<path d="M219.97,206.6l-0.76,0.13C219.57,206.69,219.8,206.65,219.97,206.6z"/>
					<path d="M225.49,206.53l0.14-0.2C225.37,206.45,225.26,206.53,225.49,206.53z"/>
					<path d="M325.07,228.83c-0.82-0.83-1.66-1.91-1.75-1.46l0.1,0.54C324.16,228.21,324.66,228.52,325.07,228.83z"/>
					<path d="M270.84,209.68c0.09,0.07,0.19,0.14,0.29,0.2c0.3-0.08,0.58-0.16,0.84-0.23C271.62,209.67,271.24,209.67,270.84,209.68
						z"/>
					<path d="M269.65,211.24l-1.37-0.61C268.58,210.8,269.02,211,269.65,211.24z"/>
					<path d="M190.04,210.31l-0.81,0.59C190.61,210.66,189.96,210.55,190.04,210.31z"/>
					<path d="M370.1,232.77c-0.95,0.15-1.68,0.33-2.31,0.53C368.94,233.16,369.94,233.21,370.1,232.77z"/>
					<path d="M222.05,201.96c-0.48,0.09-0.68,0.18-0.66,0.28C221.88,202.15,222.15,202.07,222.05,201.96z"/>
					<path d="M365.2,234.11c0.17-0.01,0.33-0.03,0.5-0.05c0.63-0.28,1.28-0.52,2.08-0.77C366.93,233.4,365.99,233.55,365.2,234.11z"
						/>
					<path d="M79.69,216.95c-0.08-0.01-0.18-0.01-0.25-0.02C79.43,216.99,79.54,216.98,79.69,216.95z"/>
					<path d="M47.92,222.81c0.27-0.2,0.72-0.49,1.15-0.75C48.85,222.16,48.49,222.38,47.92,222.81z"/>
					<path d="M389.44,224.27C390.1,223.96,389.53,224.18,389.44,224.27L389.44,224.27z"/>
					<path d="M393.38,224.52c-0.13,0.1-0.21,0.2-0.19,0.3C393.21,224.7,393.28,224.6,393.38,224.52z"/>
					<path d="M358.95,238.37c-0.02,0-0.04,0.01-0.06,0.01C359.11,238.43,359.07,238.42,358.95,238.37z"/>
					<path d="M390.53,224.03c-0.27,0.06-0.59,0.14-0.92,0.24C389.77,224.24,390.05,224.17,390.53,224.03z"/>
					<path d="M390.32,223.89c0.24-0.08,0.43-0.15,0.61-0.21C390.98,223.58,390.89,223.57,390.32,223.89z"/>
					<path d="M388.5,224.69c0.38-0.17,0.75-0.3,1.11-0.42c-0.14,0.03-0.21,0.03-0.18,0C389.24,224.36,388.96,224.48,388.5,224.69z"
						/>
					<path d="M138.67,215.47c-0.05-0.01-0.1-0.02-0.16-0.04C137.79,215.62,138.11,215.59,138.67,215.47z"/>
					<path d="M306.31,224.27c0.03,0.01,0.05,0.01,0.08,0.02c-0.03-0.02-0.06-0.04-0.09-0.06L306.31,224.27z"/>
					<path d="M303.85,223.47c1.23-0.06,1.76,0.3,2.46,0.76l-0.23-1.51C305.33,222.95,304.59,223.21,303.85,223.47z"/>
					<path d="M206.8,207.62l1.83,0.22c-2.1,0.84-3.67,0.76-1.94,1.15c0.12-1.36,6.92-0.81,7.08-2.1l1.2,0.22
						c-0.34,0.01-0.39,0.09-0.73,0.09c2.34,0.52,1.66-1.07,4.65-1.04c1.04,0.08,1.78,0.27,1.07,0.44l2.31-0.38
						c0.67,0.01,0.51,0.25-0.16,0.24l3.53-0.17l-0.03,0.04c0.5-0.22,1.65-0.52,2.21-0.65c0.9,0.21-0.45,0.14-0.22,0.31l1.97-0.29
						c0.79,0.37-0.84,0.68-2.19,0.6c1.8,1.4,1.63-0.32,5.55,0.57c-0.62,0.02-1.23,0.09-1.85,0.13c1.16,0.77,2.6,0.58,4.65,1.17
						c-0.47-0.28-4.1-1.44-1.97-1.66c0.59,0.14,1.38,0.23,2.54,0.02c-0.02,0.48,1.1,0.43,2.5,0.47l-0.14,0.63
						c1.52-0.1,1.42-0.4,2.33-0.61c1.67,0.22,1.98,0.74,2.33,1.19c2.67,0.35-1.78-0.96,1.41-0.79c2.21,0.43,3.79,0.44,6.51,0.38
						c1.53,0.42-0.33,0.35,0.21,0.61l1.45-0.33c0.34,0.07,0.2,0.2,0.14,0.27c1.19,0,0.19-0.62,2.04-0.49
						c0.61-0.59,3.59,1.58,5.97,1.26c0.52,0.29-0.34,0.33-0.22,0.61c3.18,0.1,2.71,0.16,5.39-0.02l2.05,0.91
						c-1.47-0.84,0.67-0.92,2.55-0.95c-0.51-0.36-0.94-0.67-1.24-0.84l2.92,0.35c0.32,0.18-0.02,0.33-0.55,0.48
						c0.21,0,0.4-0.01,0.56-0.02c0.96,0.47,0.34,0.7-0.47,0.88c-0.31-0.21-0.62-0.42-0.92-0.63c-0.79,0.21-1.54,0.47-1.48,0.87
						c0.2-0.03,0.57-0.01,0.96,0.05c-0.21,0.06-0.34,0.12-0.28,0.21c0.08,0.09,0.41,0.02,0.9-0.03l0.47,0.84l0.22-0.24
						c1.19,0.42,2.36,0.93,3.53,1.4c1.39,0.01,2.73-0.08,4.26-0.06c1.51,0.07,3.2,0.25,5.31,0.76c-1.18,0.17-0.48,0.74-0.73,1.31
						c-0.92-0.97-3.25-0.76-5.33-1.51c1.1,0.37,0.76,0.61,0.45,0.61l3.95,0.63c-0.24,0.46,0.69,0.62,1.6,1.13
						c-0.22-0.59,0.55-0.54,1.55-0.28c1,0.27,2.26,0.73,3.08,0.86c-0.02,0.35-0.5,0.54-2.32-0.19c1.79,1.44,3.04-0.16,4.83,1.16
						c-0.46-0.15-0.68-0.29-0.92-0.19c1.17,0.07,3.64,1.33,2.93,1.36l-0.45-0.17c1.46,0.66,3.72,1.53,5.69,2.23
						c1.96,0.73,3.66,1.22,4.05,0.93c-0.02,0.11-0.8,0.77-1.05,0.85l3.2-0.15l3.2-0.04c-0.77,0.44,0.2,2.85-2.35,2.06
						c0.64,0.43,1.42,0.94,2.97,1.41c-0.42-0.32-0.69-1.51-0.03-1.26c1.38,1.59,1.04,0.95,2.85,2.68c-0.62-0.5,0.67-1.12,1.75-0.52
						c-0.25,0.06-0.43,1.05-0.89,0.95l3.24,0.44c-0.77-0.18-0.57,0.78-0.11,1.38c-0.18-0.34,2.34,1.27,3.13,1.55l-1.04-0.84
						c3.01,1.78,3.78,0.21,6.83,1.82c-0.47,0.02-1.57,0.82-0.04,1.73c0.99-0.16,4.43-0.91,7.35-0.17l0.41,0.52
						c0.76,0.16,1.52,0.35,2.28,0.49c-0.82,0.16-2.34,0.29-3.97,0.31c-1.63,0.02-3.35-0.08-4.53-0.24c1.09,0.79,0.17,0.51,1.99,1.31
						c0.51,0.58-1.18-0.03-1.72-0.26c1.37,0.72,2.78,1.41,4.2,2.07c0.06-0.68,3.59,0.69,3.62,0.07c-0.84-0.17-1.67-0.36-2.49-0.57
						c-0.83-0.2-1.65-0.42-2.47-0.65c0.1-0.7,3.39-0.56,6.41,0.58c0.7,0.53-0.97,0.93-0.98,1.16c0.47-0.04,3.13,0.55,3.38,0.79
						c-0.49-0.01-0.97-0.05-1.45-0.07c0.85,0.41,1.64,0.4,2.47,0.43c0.41,0.02,0.83,0.05,1.27,0.15c0.45,0.08,0.91,0.23,1.43,0.5
						c0.73,0.23,2.14,1.26,2.34,0.89c-1.16-0.96-0.92-3.32-0.06-3.77c0.12,0.03,1.02,0.39,2.01,0.72c0.99,0.31,2.08,0.71,2.49,0.88
						c0.59,0.32,0.13,0.66-0.38,1c-0.51,0.33-1.06,0.6-0.54,0.91c0.06-0.16,0.77-0.37,1.06-0.44c0.8,0.18-0.36,0.56,1.41,0.52
						c0.3-0.61,3.56-0.05,0.83-0.56c1.69-0.29,1.82,0.12,3.81-0.11c-0.66-0.4,1.62-1.61,3.19-2.13c-0.07,0.19,0.34,0.35,0.53,0.42
						c3.35-0.56,5.21-0.72,8.26-1.66c0.33,0.08,1.86-0.21,1.33,0.28c0.4-0.27,0.72-0.62,1.65-0.96c2-0.07-2.05,0.81-0.44,1
						c0-0.41,2.24-1.36,3.45-2.1c-0.31-0.21-1.08,0.05-1.92,0.45c-0.85,0.39-1.78,0.9-2.41,1.25c-0.27-0.81,1.74-2.4,4.65-3.96
						c2.34-1.17,1.25,0.08,1.63-0.2c4.61-1.75,3.28-2.97,7.28-4.04c1.71-0.16,0.5,0.95,0.98,1.16c-1.88,1.05-3.15,1-4.47,1.6
						l1.74-0.48c-0.55,0.43-1.81,1.13-2.59,1.28c1.46-0.06,7.69-3.26,11.37-4.34c0.55-0.44,1.56-1.05,0.96-1.04l-1.08,0.54
						c-1.2,0.03,1.86-1.44,0.37-1.03c1.38-0.91,2.89-2.05,5.14-2.64l0.62,0.42c-0.11-0.15-1.53,0.2-2.06,0.61
						c0.8-0.59,3.56-0.52,4.28-1.59c-0.55,0.04-1.11,0.08-1.66,0.15c1.43-0.86,3.14-2.14,5.14-2.62c-1.08-0.28-0.42,0.22-2.03,0.02
						c1.48,0.41-4.97,1.71-2.74,1.9c-1.68-0.23-2.53,0.61-4.62,0.66c0.14,0.17,0.78,0.09-0.85,0.65c-0.05,0.08-0.19,0.22-0.28,0.31
						c-0.05,0.01-0.07,0.02-0.11,0.03c0.03-0.01,0.06-0.01,0.1-0.01c-0.06,0.06-0.06,0.06,0.04-0.01c0.41-0.08,0.76-0.1,0.92-0.05
						c-0.61,0.75-3.13,1.78-3.87,2.38c-0.97,0.31,0.3-0.38-0.3-0.36l-1.11,0.87c-0.3-0.36-2.75,0.39-0.68-0.8l-1.97,0.84
						c-1.25,0.27-2.87,0.88-3.77,1.47c-0.95,0.31-2.12,1.46-1.46,0.79l-2.94,1.55l-0.07-0.09c-3.02,1.18-5.97,3.18-9.72,3.47
						c-0.99,0.45-2.03,0.85-3.8,1.18l-0.43-0.3c-0.65,0.2-1.67,0.36-2.58,0.45c-0.91,0.09-1.72,0.19-1.98,0.44
						c-0.4-0.19-0.99-0.3-1.7-0.29c-0.36,0-0.74,0.02-1.14,0.06c-0.4,0.02-0.82,0.05-1.25,0.07c-0.85,0.07-1.74,0.16-2.55,0.15
						c-0.81,0-1.56,0.04-2.13-0.09l-0.13,0.5c-1.6-0.17-3.15-0.21-5.19-0.44l0.03,0.46c-1.83,0.03-4.36-1.38-7.02-2.31
						c0.24-0.1,0.9,0.19,1.34,0.45c-1.43-1.03-3.14-1.47-4.84-1.96c-1.7-0.48-3.38-0.98-4.63-1.99c-0.77-0.19-1.25-0.49-1.69-0.83
						c0.07,0.03,0.13,0.05,0.18,0.07c-0.07-0.04-0.18-0.09-0.28-0.15c-0.27-0.22-0.55-0.46-0.86-0.7c0.24,0.24,0.48,0.47,0.7,0.63
						c-0.54-0.27-1.38-0.62-2.23-0.93l-0.12-0.6c-0.07-0.03-0.12-0.05-0.19-0.08c-0.7-0.56-0.73-0.12-0.48,0.41
						c-0.44-0.14-0.85-0.25-1.19-0.29c-0.28-1.02-2.21-0.87-2.7-2.07c-0.72,0.07-4.17-1.87-5-1.33c0.02-0.11-0.19-0.28,0.25-0.06
						c-0.86-0.55-1.71-1.11-2.64-1.29l-0.11-0.74l-2.36-0.23c-1.05-0.92-1.46-1.37-0.05-1.2c-3.22-0.77-2.49-0.91-5.29-1.36
						l0.28-0.31c-0.91-0.38-2.55-0.53-2.96-1.07c-0.84-0.83-3.38-1.81-6.3-3.01c-1.45-0.62-3.06-1.14-4.58-1.75
						c-1.53-0.6-3.01-1.24-4.31-1.81c0.69,1.44-2.35-1.29-2.84-0.5c-0.23-0.36-0.94-0.75,0.01-0.7c-2.82-0.64-4.05-1.65-6.18-1.47
						c-0.25-0.36,0.7-0.22,0.46-0.46c-0.24,0-0.95-0.01-1.2-0.25c-0.24-0.24,0.47-0.11,0.94-0.1c-2.87-0.75-3.37,0-3.78,0.73
						c-1.35-0.71-2.1-0.83-3.26-0.58c-0.44-0.37-1.22-0.84,0.58-0.51c-0.5-0.14-2-0.6-3.42-0.95c-1.43-0.3-2.76-0.49-2.87-0.19
						c-0.28-0.22-1.4-0.33-1.68-0.31c-2.25-0.5-2.44-0.59-4.69-0.89l0.6,0.2c-1.01,0.62-1.88-0.14-3.7-0.34l0.06-0.07
						c-4.05-1.19-1.82,0.01-5.83-1.17l0.16,0.5c-0.25,0.49-1.14,0.22-2.27-0.16c-1.13-0.37-2.51-0.78-3.72-0.7l0.83,0.35
						c-1.33,0.24-3.52-1.75-4.84-1.96c-0.28-0.1,0.47-0.13,0.87-0.15c-3.42-0.82-0.49,0.6-3.07,0.6c-0.46-0.36,0.66-0.83-1.07-0.99
						c-0.43-0.16-1.7,0.04-3.15,0.19c-1.46,0.2-3.09,0.35-4.27,0c0.52,0.27,1.03,0.54-0.17,0.72c-1.82,0.02-4.96-1-6.6-0.14
						c-0.23-0.07-0.32-0.13-0.33-0.2c-0.7,0.13-1.83,0.21-2.89,0.38c-1.06,0.18-2.05,0.38-2.46,0.62c-0.68-0.78-2.86-0.5-4.84-0.12
						c-1.98,0.4-3.79,0.8-3.85,0.04c-1.43,0.15-2.85,0.32-4.27,0.53l0.09-0.17c-2.75,0.22-3.66,0.75-4.56,1.23
						c-0.64-0.02-0.2-0.22-0.16-0.31c-4.01,0.27-4.4,0.41-7.58,1.7l-0.43-0.43c-0.85,0.43-5.83,0.21-9.57,1.47
						c0.03-0.06,0.09-0.17,0.38-0.29c-4.23,1.36-10.58,0.49-11.85,2.53l-2.78,0.91c3.72-0.46-0.42,0.86,1.14,0.91
						c-1.44,0.34-3.85,0.07-2.07-0.31l0.29,0.04c0.51-1.02-4.65,0.37-4.64-0.28c-3.63,0.54-7.24,0.84-10.78,1.04
						c-3.54,0.17-7.03,0.2-10.44,0.26l0.81,0.72l-2.4,0c-0.63-0.16-0.85-0.56,0.85-0.56c-0.9-0.4-2.85,0.4-2.9,0.56
						c-3.35-0.3,1.3-0.85,0.27-0.88c-0.46,0.03-0.93,0.04-1.39,0.06l0.31,0.09c-1.13,0.29-1.23,0.61-3.29,0.56
						c-1.3-0.15-0.66-0.45-1.17-0.49c0-0.05-0.17-0.07-0.79-0.03l-3.02-0.13l1.2,0.6c-1.35,0.26-2.85-0.09-1.46,0.59
						c-2.02-1.03-11.3-0.72-12.56-1.08c-1.9,0.36-3.77,0.29-6.08,0.17c0.57,0.13,0.9,0.79-1.09,0.67c0.76-1.31-3.63-0.69-5.24-1.64
						c1.44,0.65-5.7,0.12-3.43,1.04c-1.67-0.1-0.1-0.5-1.37-0.8c-1.99,0.3-4.18,0.21-6.51,0.21c-1.16-0.01-2.35-0.04-3.57-0.01
						c-1.21,0.05-2.44,0.13-3.67,0.28c-0.06,0.18,0.79,0.38-0.24,0.73c-0.89-0.23-1.79-0.42-2.69-0.6
						c-0.97,0.21-0.77,1.12-2.63,0.74c0.27,0.11,0.67,0.29,0.03,0.43c-4.86,0.28-9.76,1.39-14.5,2.99
						c-4.79,1.47-9.42,3.38-14.2,5.21c1.36-0.39,0.58,0.09-0.31,0.63c0.62-0.27,0.21,0.38,0.45,0.52c-1.31,0.52-2.61,1.1-3.88,1.74
						c-0.13,0.49-1.02,1.17-1.87,1.86c-0.84,0.69-1.63,1.4-1.57,1.78c0.31-0.32,0.6-0.66,0.92-0.96c-0.43,0.85,0.32,0.76,1.2,0.6
						c0.88-0.17,1.93-0.36,2.12,0.09c0.48-0.91,1.69-1.38,2.98-1.9c1.3-0.53,2.71-1.08,3.78-2.33c0.69-0.14-0.37,0.54,0.06,0.57
						c0.49-0.72,1.29-1.24,2.96-1.79l-0.14,0.17c4.42-2.09,6.62-2.3,11.96-3.54l-0.52-0.36c1.17-0.21,1.45-0.13,2.02-0.14
						c1.16-1.01-3.25,0.73-2.24-0.32c0.9,0.28,2.93-0.19,4.91-0.64c2.01-0.34,3.96-0.64,4.56-0.2c1.8-0.3-0.62-0.48,1.19-0.73
						l0.52,0.23l0.41-0.44c1.2-0.09,1.85,0.2,1.92,0.45c-0.29,0.01-0.81,0.17-1.11,0.23c0.79,0.08,1.87-0.09,2.82-0.27
						c0.96-0.15,1.79-0.3,2.06-0.27l-1.77-0.04c4.95-0.77,11.09-0.61,15.95-1.23l-0.37-0.23c3.73-0.38,2.98,0.24,7.08,0.13
						l-0.15,0.05c0.82-0.2,1.93-0.29,3.05-0.24c-1.04,0.24,1.93,0.56,0.57,0.81c4.07-0.32,2.02-0.28,4.72-1.03l0.61,0.39
						c0.93-0.3,1.01-0.48,3.07-0.5c-1.7,0.26,1.29,0.61-0.61,0.96c4.28,0.97,6.44-0.61,8.39,0.65c2.01-0.96-3.72-0.69-2.61-0.87
						c-0.92-0.36,1.66-0.71,3.01-0.57c1.38,0.05,2.32,1.37,5.8,1.41c-0.35-0.01-0.37,0.07-0.72,0.06c1.3,0.28,2.56-0.34,4.16,0.1
						c0.9-0.61,2.08,0.04,2.34-0.76c-1.07,0.09-2.13,0.12-3.2,0.18c1.82-0.18,3.5-1.13,6.49-0.74c-0.23,0.16-1.11,0.39-1.72,0.52
						c0.88,0.22,1.68-0.18,2.59,0.04c-0.24,0.79-3.89,0.26-5.84,0.86c0.94,0.36,3.69-0.63,2.71,0.26c1.39-1.13,3.46,0.11,5.81-0.86
						l-0.14,0.48c0.37-0.09,1.14-0.35,1.83-0.37l-1.22,0.67c0.95-0.31,1.88-0.24,2.81-0.14c0.93,0.08,1.85,0.18,2.77-0.03
						c-3.87,0.31-0.91-0.5-2.57-0.72c4.7-1,2.84,1.06,8.15,0.27c-0.71,0.17-2.74,0-1.63-0.33c1.02,0.01,2.37,0.01,3.03,0.19
						c3.5-0.52-0.6-0.42,0.86-0.89c1.27,0.43,1.69-0.46,3.19-0.85l0.08,0.48c4.02-0.27,0.91-1.15,4.53-1.31l-1.41,0.89l1.83-0.46
						l-0.3,0.6c1.96-0.73,2.6-0.72,4.6-0.9c-0.51-0.26,0.11-0.91,1.85-1.22c1.24,0.08-0.59,0.57,1.87,0.07
						c-0.5,0.4-1.05,0.88-2.2,0.62c-0.08,0.17-0.5,0.39-0.59,0.56c1.34,0.11,3.23-0.48,4.13-0.65c-0.35,0.04-0.76,0.09-0.99,0.06
						l3.46-1.29c0.59,0.08,0.17,0.3-0.24,0.52c0.71-0.18,1.18-0.49,2.23-0.72c-0.21,0.44-0.07,0.82-1.54,1.27l3.32-1.04
						c0.26,0.13,1.82,0.15,1.41,0.37c1.92-0.11,4.48-1.57,7.02-1.69c0.12-0.1,0.36-0.21,0.88-0.36c2.36-0.3,4.5-0.16,7.19-1.1
						l1.67,0.48c2.15-0.46-2.25-0.59,1.33-1.34c2.54-0.55,1.03,0.47,1.95,0.55c0.61-0.25,1.45-0.63,2.44-0.9
						c0.99-0.24,2.14-0.39,3.34-0.21C208.14,207.55,207.52,207.5,206.8,207.62z M233.71,206.5c-0.53,0.06-1.58,0.33-1.95,0.05
						C232.38,206,232.83,206.28,233.71,206.5z M274.49,211.56c-0.42,0.05-0.98-0.2-1.6-0.54
						C273.39,211.1,273.92,211.28,274.49,211.56z M382.27,227.8c-0.02,0.02-0.03,0.03-0.04,0.04
						C381.07,228.14,381.48,228.04,382.27,227.8z M384.6,227.01c0.2-0.16,0.16-0.22,0.03-0.24c-0.11,0.18-0.61,0.41-1.2,0.63
						C383.64,227.45,383.97,227.4,384.6,227.01z M130.95,212.23l0.47,0.13C130.34,212.49,130.65,212.36,130.95,212.23z"/>
					<path d="M269.8,211.06c-0.13-0.11-0.14-0.21-0.16-0.31C269.42,210.79,269.4,210.88,269.8,211.06z"/>
					<path d="M190.19,210.21l-0.08,0.01c-0.04,0.04-0.06,0.07-0.07,0.1L190.19,210.21z"/>
					<path d="M349.12,240.95c-0.53-0.08-0.81-0.18-1-0.29C348.08,240.78,348.31,240.91,349.12,240.95z"/>
					<path d="M396.46,221.27c-0.49,0.21-0.97,0.45-1.45,0.68c0.71-0.3,1-0.31,1.4-0.36C396.33,221.5,395.99,221.45,396.46,221.27z"
						/>
					<path d="M410.47,219.99c0.2-0.12,0.47-0.13,0.67-0.24l-0.12-0.2C410.08,219.8,409.48,220.18,410.47,219.99z"/>
					<path d="M398.39,222.29c0.25,0.34,1.14-0.12,2.17-0.55c-0.06,0.02-0.12,0.05-0.18,0.06
						C400.5,221.16,399.44,221.73,398.39,222.29z"/>
					<path d="M400.79,221.64c0.32-0.13,0.64-0.25,0.97-0.33C401.82,221.06,401.35,221.38,400.79,221.64z"/>
					<path d="M387.35,225.52c0.52-0.11,0.1-0.61,0.44-0.57C388.13,224.24,384.82,226.9,387.35,225.52z"/>
					<polygon points="399.68,223.26 399.14,222.92 398.69,223.5 					"/>
					<path d="M391.42,225.99c0.56-0.18,1.12-0.37,1.68-0.53c-0.06-0.07,0.13-0.19,0.38-0.33
						C392.46,225.5,391.32,225.87,391.42,225.99z"/>
					<path d="M393.48,225.13c0.53-0.2,1.03-0.4,1.29-0.59C394.49,224.66,393.88,224.91,393.48,225.13z"/>
					<path d="M397.46,224.2l-0.52,0.08l-1.17,0.41C396.33,224.52,396.89,224.34,397.46,224.2z"/>
					<path d="M374.02,233.31c-0.57,0.29-1.15,0.55-1.73,0.82c-0.12,0.23,0.4,0.14,1.05-0.17
						C373.72,233.69,374.35,233.36,374.02,233.31z"/>
					<path d="M379.9,232.36c-0.52,0.11-0.59,0.02-0.93-0.02l0.19,0.59L379.9,232.36z"/>
					<path d="M374.77,234.65c-0.11,0.24-2.44,1.48-0.16,0.56C374.73,234.97,376.47,234.11,374.77,234.65z"/>
					<polygon points="346.22,239.02 346.71,239.06 346.75,238.04 					"/>
					<path d="M321.16,232.66c1.93,1.27,0.77-0.31,2.49,0.9c0.59,0.03-1.4-0.99-0.82-0.92C321.47,232.24,320.9,231.77,321.16,232.66z
						"/>
					<path d="M322.83,232.64c0.22,0.06,0.45,0.13,0.7,0.18C323.14,232.69,322.95,232.65,322.83,232.64z"/>
					<path d="M43.05,225.65c-0.44,0.28-0.89,0.54-1.32,0.84c0.32-0.14,0.66-0.27,0.98-0.39L43.05,225.65z"/>
					<path d="M41.33,228.16l-0.71-0.22L40.37,229C40.59,228.74,41.04,228.23,41.33,228.16z"/>
					<path d="M237.64,208.02l0.12-0.15c-0.21-0.18-0.55-0.21-1.22-0.28L237.64,208.02z"/>
					<polygon points="218.18,207.3 218.51,207.3 217.86,206.74 					"/>
					<path d="M201.97,209.43c0.66-0.06,1.43-0.28,2.09-0.34C202.63,209.37,201.7,208.72,201.97,209.43z"/>
				</g>
			</g>
		</g>
	</g>
</g>
</svg>
